<?xml version="1.0" encoding="UTF-8" standalone="no"?>
<!-- Created with Inkscape (http://www.inkscape.org/) -->

<svg
   xmlns:dc="http://purl.org/dc/elements/1.1/"
   xmlns:cc="http://creativecommons.org/ns#"
   xmlns:rdf="http://www.w3.org/1999/02/22-rdf-syntax-ns#"
   xmlns:svg="http://www.w3.org/2000/svg"
   xmlns="http://www.w3.org/2000/svg"
   xmlns:sodipodi="http://sodipodi.sourceforge.net/DTD/sodipodi-0.dtd"
   xmlns:inkscape="http://www.inkscape.org/namespaces/inkscape"
   width="210mm"
   height="297mm"
   viewBox="0 0 744.09448819 1052.3622047"
   id="svg8450"
   version="1.1"
   inkscape:version="0.91 r13725"
   sodipodi:docname="shapes.svg">
  <defs
     id="defs8452" />
  <sodipodi:namedview
     id="base"
     pagecolor="#ffffff"
     bordercolor="#666666"
     borderopacity="1.0"
     inkscape:pageopacity="0.0"
     inkscape:pageshadow="2"
     inkscape:zoom="1.6419672"
     inkscape:cx="321.86862"
     inkscape:cy="435.5357"
     inkscape:document-units="mm"
     inkscape:current-layer="layer1"
     showgrid="false"
     inkscape:window-width="1881"
     inkscape:window-height="1056"
     inkscape:window-x="39"
     inkscape:window-y="24"
     inkscape:window-maximized="1"
     showguides="true"
     inkscape:snap-global="false" />
  <metadata
     id="metadata8455">
    <rdf:RDF>
      <cc:Work
         rdf:about="">
        <dc:format>image/svg+xml</dc:format>
        <dc:type
           rdf:resource="http://purl.org/dc/dcmitype/StillImage" />
        <dc:title />
      </cc:Work>
    </rdf:RDF>
  </metadata>
  <g
     inkscape:label="Layer 1"
     inkscape:groupmode="layer"
     id="layer1">
    <path
       style="fill:none;stroke:#555555;stroke-width:0.17716536;stroke-opacity:1"
       d="m -54.29307,584.08583 c -3.1832,0 -5.74504,2.56287 -5.75,5.83008 0,0 0.64521,35.63166 -17.62692,76.21093 -11.61949,25.8049 -36.33969,48.05274 -36.33969,48.05274 l 32.13853,54.43359 50.164014,0.0234 50.16601,-0.0234 32.1367,-54.43359 c 0,0 -24.72032,-22.24782 -36.33982,-48.05274 -18.2721605,-40.57927 -17.6250005,-76.21093 -17.6250005,-76.21093 -0.007,-3.26721 -2.56875,-5.83008 -5.75195,-5.83008 z"
       id="path3238"
       inkscape:connector-curvature="0" />
    <path
       style="fill:none;stroke:#555555;stroke-width:0.17716536;stroke-opacity:1"
       d="m 318.36909,576.92646 c -1.5e-4,1.43581 1.08687,2.5918 2.10118,2.5918 l 2.63515,0 87.26171,0 2.52367,0 c 1.01432,0 2.21281,-1.15599 2.21266,-2.5918 l -0.002,-2.23027 c -1.4e-4,-1.43582 -1.22907,-2.33444 -2.21071,-2.58984 l -2.926,0 0,-21.53776 2.926,0 c 1.03468,0.0578 2.21267,-1.15598 2.21267,-2.5918 l 0,-2.36283 c 0,-1.43582 -1.19835,-2.5918 -2.21267,-2.5918 l -2.52367,0 -87.26171,0 -2.63515,0 c -1.01432,0 -2.09922,1.15598 -2.09922,2.5918 l 0,2.36283 c 0,1.43582 1.0849,2.5918 2.09922,2.5918 l 3.03749,0 0,21.40715 -3.03749,0 c -1.14941,0.0689 -2.126,1.26168 -2.09922,2.58984 z"
       id="path9042"
       inkscape:connector-curvature="0"
       sodipodi:nodetypes="csccsccscccsssccssssccccc" />
    <path
       style="fill:none;stroke:#555555;stroke-width:0.17716536;stroke-opacity:1"
       d="m 256.89686,557.41341 -2.49565,0.002 c -1.46371,5.5e-4 -2.64258,1.29355 -2.64258,2.90234 l 0,4.60742 0,138.40236 0,4.60547 c 0,1.60877 1.17887,2.9068 2.64258,2.90625 l 2.49565,0 c 1.73286,0.16093 2.64062,-1.02678 2.64062,-2.90625 l 0,-2.23047 21.64345,0 0,2.23047 c 0,1.60877 1.17887,2.90625 2.64258,2.90625 l 2.4976,0 c 1.4637,0 2.64257,-1.29748 2.64257,-2.90625 l 0,-4.60547 0,-138.40236 0,-4.60742 c 0,-1.60879 -1.17887,-2.9043 -2.64257,-2.9043 l -2.4976,0 c -1.46371,0 -2.64258,1.29551 -2.64258,2.9043 l 0,2.23437 -21.64345,0 0,-2.23437 c 0,-1.60879 -1.17691,-2.90485 -2.64062,-2.90429 z"
       id="path9040"
       inkscape:connector-curvature="0"
       sodipodi:nodetypes="ccsccsccsccssssccssssccscc" />
    <path
       style="fill:none;stroke:#555555;stroke-width:0.17716536;stroke-opacity:1"
       d="m 376.74318,721.22917 c 0,-1.72395 -1.38932,-3.11132 -3.11329,-3.11132 l -164.91602,0 c -1.72396,0 -3.11328,1.38737 -3.11328,3.11132 l 0,4.71937 c 0,1.72397 1.32457,3.11133 3.11328,3.11133 l 2.02539,0 0,25.94796 -2.02539,0 c -1.72396,0 -3.11328,1.38932 -3.11328,3.11328 l 0,4.71936 c 0,1.72397 1.38932,3.11133 3.11328,3.11133 l 164.91602,0 c 1.72397,0 3.11329,-1.38736 3.11329,-3.11133 l 0,-4.71936 c 0,-1.72396 -1.38932,-3.11328 -3.11329,-3.11328 l -2.02539,0 0,-25.94796 2.02539,0 c 1.72397,0 3.11329,-1.38736 3.11329,-3.11133 z"
       id="path9038"
       inkscape:connector-curvature="0"
       sodipodi:nodetypes="sccsssccsssccsssccsss" />
    <path
       style="fill:none;stroke:#555555;stroke-width:0.17716534;stroke-miterlimit:4;stroke-dasharray:none;stroke-opacity:1"
       d="m 304.23302,617.59244 c -0.10766,1.19193 1.12981,2.19364 2.25094,2.25094 l 2.82761,0 c 1.12492,0.005 1.73077,0.99975 1.67694,2.1957 l 0,2.64778 c 0,2.49559 2.00891,4.50189 4.50452,4.50189 l 65.64006,0 c 2.49558,0 4.50453,-2.0063 4.50453,-4.50189 l 0,-29.59057 c 0,-2.49558 -2.00895,-4.50187 -4.50453,-4.50187 l -65.64006,0 c -2.4956,0 -4.50452,2.00629 -4.50452,4.50187 l 0,2.93427 c 0.13185,1.15953 -0.95401,1.99382 -1.67694,1.90922 l -2.8276,0 c -1.17496,-0.0504 -2.25094,1.00517 -2.25094,2.25093 z"
       id="path9030"
       inkscape:connector-curvature="0"
       sodipodi:nodetypes="ccccsssssssscccsc" />
    <path
       style="fill:none;stroke:#555555;stroke-width:0.17716536;stroke-opacity:1"
       d="m 298.19161,675.43888 c 0,19.55098 15.84743,35.40036 35.39844,35.40036 6.55793,-0.0765 16.92003,-5.9062 24.08184,-8.52432 7.16183,-2.61812 21.71816,0.037 28.10762,2.12773 6.38946,2.09075 7.0743,-1.36951 7.0742,-3.07227 l 0,-51.8613 c 0,-1.70276 -0.68472,-5.16301 -7.0742,-3.07226 -6.38948,2.09075 -20.94579,4.74435 -28.10762,2.12593 -7.16183,-2.6186 -17.52391,-8.4478 -24.08185,-8.52432 -19.551,0 -35.39845,15.84942 -35.39843,35.40039 z"
       id="path9028"
       inkscape:connector-curvature="0"
       sodipodi:nodetypes="scszcszccss" />
    <path
       inkscape:connector-curvature="0"
       id="path9050"
       d="m 565.26874,721.22917 c 0,-1.72395 -1.3893,-3.11132 -3.11329,-3.11132 l -164.91599,0 c -1.72396,0 -3.11328,1.38737 -3.11328,3.11132 l 0,4.71936 c 0,1.72397 1.59102,2.30216 3.11328,3.11133 l 2.02539,0 0,25.94796 -2.02539,0 c -1.72396,0 -3.11328,1.38932 -3.11328,3.11328 l 0,4.71937 c 0,1.72397 1.38932,3.11133 3.11328,3.11133 l 164.91599,0 c 1.724,0 3.11329,-1.38736 3.11329,-3.11133 l 0,-4.71937 c 0,-1.72396 -1.3893,-3.11328 -3.11329,-3.11328 l -2.0254,0 0,-25.94796 2.0254,0 c 1.724,0 3.11329,-1.38736 3.11329,-3.11133 z"
       style="fill:none;stroke:#555555;stroke-width:0.17716536;stroke-opacity:1"
       sodipodi:nodetypes="sccsssccsssccsssccsss" />
    <path
       inkscape:connector-curvature="0"
       id="path9052"
       d="m 210.73882,557.41341 -2.49565,0.002 c -1.46371,5.5e-4 -2.64258,1.29355 -2.64258,2.90234 l 0,4.60742 0,138.40235 0,4.60547 c 0,1.60877 1.17887,2.9068 2.64258,2.90625 l 2.49565,0 c 1.46371,-5.6e-4 2.64062,-1.29748 2.64062,-2.90625 l 0,-2.23047 21.64347,0 0,2.23047 c 0,1.60877 1.17887,2.90625 2.64258,2.90625 l 2.4976,0 c 1.4637,0 2.64257,-1.29748 2.64257,-2.90625 l 0,-4.60547 0,-138.40235 0,-4.60742 c 0,-1.60879 -1.17887,-2.9043 -2.64257,-2.9043 l -2.4976,0 c -1.46371,0 -2.64258,1.29551 -2.64258,2.9043 l 0,2.23437 -21.64347,0 0,-2.23437 c 0,-1.60879 -1.17691,-2.90485 -2.64062,-2.90429 z"
       style="fill:none;stroke:#555555;stroke-width:0.17716536;stroke-opacity:1"
       sodipodi:nodetypes="ccsccsccsccssssccssssccscc" />
    <path
       sodipodi:nodetypes="csscccazcszaccc"
       style="fill:none;stroke:#555555;stroke-width:0.17716536;stroke-opacity:1"
       d="m 402.21081,701.87166 c 0,19.551 19.84943,-0.60157 39.4004,-0.60157 l 40.00006,0 c 19.55098,0 39.40036,20.15257 39.40036,0.60157 l 0,-43.99999 0,-40 c -0.0765,-6.55793 -21.18865,-20.46502 -26.37109,-33.77539 -6.11652,-15.70943 -6.11625,-44.02462 -4.0255,-50.41407 2.09075,-6.38945 -1.36951,-7.07431 -3.07227,-7.07421 l -51.8613,0 c -1.70276,0 -5.16301,0.68474 -3.07226,7.07421 2.09075,6.38947 2.08952,34.7047 -4.0273,50.41407 -5.18268,13.31027 -26.29458,27.21746 -26.3711,33.77539 l 0,40 z"
       id="path4166"
       inkscape:connector-curvature="0" />
    <path
       style="fill:none;stroke:#555555;stroke-width:0.16680637;stroke-opacity:1"
       d="m 516.89918,574.75781 c 0.006,12.32043 8.89144,22.66747 21.13661,24.02736 l 0,-11.96393 c 0,-1.00276 1.18922,-1.80951 2.19198,-1.80951 l 1.71756,0 c 1.00276,0 2.19014,0.80675 2.19014,1.80951 l 0,11.94739 c 12.23962,-1.35831 21.12393,-11.69607 21.13845,-24.01082 -0.0143,-12.31474 -8.89883,-22.6525 -21.13845,-24.01081 l 0,11.94739 c 0,1.00275 -1.18738,1.8095 -2.19014,1.8095 l -1.71756,0 c -1.00276,0 -2.19198,-0.80675 -2.19198,-1.8095 l 0,-11.96394 c -12.24517,1.35988 -21.13062,11.70692 -21.13661,24.02736 z"
       id="path4155"
       inkscape:connector-curvature="0"
       sodipodi:nodetypes="ccsssscccsssscc" />
    <path
       sodipodi:nodetypes="ccsssscccsssscc"
       style="fill:none;stroke:#555555;stroke-width:0.17716536;stroke-opacity:1"
       d="m 271.41417,482.1112 c -8.97538,0.0113 -16.61,6.27842 -18.0039,15.14491 l 7.85023,0 c 0.94516,0 1.70508,1.02906 1.70508,1.97423 l 0,2.25781 c 0,0.94516 -0.75992,1.97618 -1.70508,1.97618 l -7.86195,0 c 1.39545,8.8701 9.03643,15.1377 18.01562,15.14296 8.97919,-0.005 16.62018,-6.27286 18.01563,-15.14296 l -7.86196,0 c -0.94517,0 -1.70703,-1.03102 -1.70703,-1.97618 l 0,-2.25781 c 0,-0.94517 0.76186,-1.97423 1.70703,-1.97423 l 7.85024,0 c -1.39389,-8.86649 -9.02853,-15.13374 -18.00391,-15.14491 z"
       id="path4163"
       inkscape:connector-curvature="0" />
    <path
       sodipodi:nodetypes="ccccsssssssscccsc"
       inkscape:connector-curvature="0"
       id="path4206"
       d="m 205.60715,541.08145 c -0.10766,1.19193 1.12981,2.19364 2.25094,2.25094 l 1.75099,0 c 1.12492,0.005 1.73077,0.59602 1.67694,1.79197 l 0,3.52895 c 0,1.87654 1.42197,2.50189 2.50452,2.50189 l 82.56345,0 c 2.49558,0 4.50453,-2.0063 4.50453,-4.50189 l 0,-17.94627 c 0,-2.49558 -2.00895,-4.50187 -4.50453,-4.50187 l -82.56345,0 c -1.67468,0 -2.50452,0.94833 -2.50452,2.50187 l 0,3.81544 c 0.0242,1.06533 -0.84635,1.48243 -1.67694,1.50549 l -1.75098,0 c -1.17496,-0.0504 -2.25094,1.00517 -2.25094,2.25093 z"
       style="fill:none;stroke:#555555;stroke-width:0.17716534;stroke-miterlimit:4;stroke-dasharray:none;stroke-opacity:1" />
    <path
       inkscape:connector-curvature="0"
       id="path4237"
       d="m 210.96559,487.22257 c -6.45349,6.23779 -7.59972,16.04852 -2.4491,23.39894 l 5.65134,-5.44871 c 0.68042,-0.65602 1.94173,-0.44265 2.59776,0.23778 l 1.56711,1.62538 c 0.65601,0.68042 0.82457,1.95009 0.14415,2.60611 l -5.65978,5.45685 c 7.16116,5.41698 17.0121,4.62552 23.47983,-1.60299 6.4606,-6.2359 7.6109,-16.05158 2.45889,-23.40568 l -5.65978,5.45685 c -0.68043,0.65602 -1.9445,0.44259 -2.60052,-0.23783 l -1.56711,-1.62538 c -0.65602,-0.68043 -0.82182,-1.95003 -0.14139,-2.60606 l 5.65135,-5.44872 c -7.15754,-5.41547 -17.00367,-4.62816 -23.47275,1.59346 z"
       style="fill:none;stroke:#555555;stroke-width:0.17716536;stroke-opacity:1"
       sodipodi:nodetypes="ccsssscccsssscc" />
    <path
       sodipodi:nodetypes="ccsssscccsssscc"
       inkscape:connector-curvature="0"
       id="path4239"
       d="m 302.98837,506.14316 c 0.006,12.32043 8.89144,22.66747 21.13661,24.02736 l 0,-11.96393 c 0,-1.00276 1.18922,-1.80951 2.19198,-1.80951 l 1.71756,0 c 1.00276,0 2.19014,0.80675 2.19014,1.80951 l 0,11.94739 c 12.23962,-1.35831 21.12393,-11.69607 21.13845,-24.01082 -0.0143,-12.31474 -8.89883,-22.6525 -21.13845,-24.01081 l 0,11.94739 c 0,1.00275 -1.18738,1.8095 -2.19014,1.8095 l -1.71756,0 c -1.00276,0 -2.19198,-0.80675 -2.19198,-1.8095 l 0,-11.96394 c -12.24517,1.35988 -21.13062,11.70692 -21.13661,24.02736 z"
       style="fill:none;stroke:#555555;stroke-width:0.16680637;stroke-opacity:1" />
    <path
       style="fill:none;stroke:#555555;stroke-width:0.16680637;stroke-opacity:1"
       d="m 361.24728,506.14316 c 0.006,12.32043 8.89144,22.66747 21.13661,24.02736 l 0,-11.96393 c 0,-1.00276 1.18922,-1.80951 2.19198,-1.80951 l 1.71756,0 c 1.00276,0 2.19014,0.80675 2.19014,1.80951 l 0,11.94739 c 12.23962,-1.35831 21.12393,-11.69607 21.13845,-24.01082 -0.0143,-12.31474 -8.89883,-22.6525 -21.13845,-24.01081 l 0,11.94739 c 0,1.00275 -1.18738,1.8095 -2.19014,1.8095 l -1.71756,0 c -1.00276,0 -2.19198,-0.80675 -2.19198,-1.8095 l 0,-11.96394 c -12.24517,1.35988 -21.13062,11.70692 -21.13661,24.02736 z"
       id="path4241"
       inkscape:connector-curvature="0"
       sodipodi:nodetypes="ccsssscccsssscc" />
    <path
       sodipodi:nodetypes="ccsssscccsssscc"
       inkscape:connector-curvature="0"
       id="path4243"
       d="m 559.40716,490.35131 c -8.04851,-9.32816 -21.53431,-11.36422 -31.69725,-4.39943 l 7.81121,9.06204 c 0.6547,0.75954 0.28066,2.14705 -0.47888,2.80175 l -1.30096,1.12138 c -0.75954,0.6547 -2.18564,0.81887 -2.84034,0.0593 l -7.80041,-9.04951 c -8.38403,9.02005 -8.36393,22.6509 -0.33467,31.98814 8.05109,9.31843 21.53014,11.34805 31.68783,4.38569 l -7.80041,-9.04951 c -0.65469,-0.75953 -0.28204,-2.14584 0.4775,-2.80054 l 1.30096,-1.12138 c 0.75954,-0.6547 2.18703,-0.82007 2.84173,-0.0605 l 7.81121,9.06205 c 8.38721,-9.02487 8.36192,-22.66348 0.32248,-31.99947 z"
       style="fill:none;stroke:#555555;stroke-width:0.16680637;stroke-opacity:1" />
    <path
       inkscape:connector-curvature="0"
       id="path4245"
       d="m 565.48613,635.37117 c -0.0113,-8.97538 -6.27842,-16.61 -15.14491,-18.0039 l 0,7.85023 c 0,0.94516 -1.02906,1.70508 -1.97423,1.70508 l -2.25781,0 c -0.94516,0 -1.97618,-0.75992 -1.97618,-1.70508 l 0,-7.86195 c -8.8701,1.39545 -15.1377,9.03643 -15.14296,18.01562 0.005,8.97919 6.27286,16.62018 15.14296,18.01563 l 0,-7.86196 c 0,-0.94517 1.03102,-1.70703 1.97618,-1.70703 l 2.25781,0 c 0.94517,0 1.97423,0.76186 1.97423,1.70703 l 0,7.85024 c 8.86649,-1.39389 15.13374,-9.02853 15.14491,-18.00391 z"
       style="fill:none;stroke:#555555;stroke-width:0.17716536;stroke-opacity:1"
       sodipodi:nodetypes="ccsssscccsssscc" />
    <path
       inkscape:connector-curvature="0"
       id="path4247"
       d="m 565.48613,689.98323 c -0.0113,-8.97538 -6.27842,-16.61 -15.14491,-18.0039 l 0,7.85023 c 0,0.94516 -1.02906,1.70508 -1.97423,1.70508 l -2.25781,0 c -0.94516,0 -1.97618,-0.75992 -1.97618,-1.70508 l 0,-7.86195 c -8.8701,1.39545 -15.1377,9.03643 -15.14296,18.01562 0.005,8.97919 6.27286,16.62018 15.14296,18.01563 l 0,-7.86196 c 0,-0.94517 1.03102,-1.70703 1.97618,-1.70703 l 2.25781,0 c 0.94517,0 1.97423,0.76186 1.97423,1.70703 l 0,7.85024 c 8.86649,-1.39389 15.13374,-9.02853 15.14491,-18.00391 z"
       style="fill:none;stroke:#555555;stroke-width:0.17716536;stroke-opacity:1"
       sodipodi:nodetypes="ccsssscccsssscc" />
    <path
       sodipodi:nodetypes="ccsssscccsssscc"
       style="fill:none;stroke:#555555;stroke-width:0.17716536;stroke-opacity:1"
       d="m 439.36911,482.1112 c -8.97538,0.0113 -16.61,6.27842 -18.0039,15.14491 l 7.85023,0 c 0.94516,0 1.70508,1.02906 1.70508,1.97423 l 0,2.25781 c 0,0.94516 -0.75992,1.97618 -1.70508,1.97618 l -7.86195,0 c 1.39545,8.8701 9.03643,15.1377 18.01562,15.14296 8.97919,-0.005 16.62018,-6.27286 18.01563,-15.14296 l -7.86196,0 c -0.94517,0 -1.70703,-1.03102 -1.70703,-1.97618 l 0,-2.25781 c 0,-0.94517 0.76186,-1.97423 1.70703,-1.97423 l 7.85024,0 c -1.39389,-8.86649 -9.02853,-15.13374 -18.00391,-15.14491 z"
       id="path4249"
       inkscape:connector-curvature="0" />
    <path
       inkscape:connector-curvature="0"
       id="path4251"
       d="m 487.15203,482.1112 c -8.97538,0.0113 -16.61,6.27842 -18.0039,15.14491 l 7.85023,0 c 0.94516,0 1.70508,1.02906 1.70508,1.97423 l 0,2.25781 c 0,0.94516 -0.75992,1.97618 -1.70508,1.97618 l -7.86195,0 c 1.39545,8.8701 9.03643,15.1377 18.01562,15.14296 8.97919,-0.005 16.62018,-6.27286 18.01563,-15.14296 l -7.86196,0 c -0.94517,0 -1.70703,-1.03102 -1.70703,-1.97618 l 0,-2.25781 c 0,-0.94517 0.76186,-1.97423 1.70703,-1.97423 l 7.85024,0 c -1.39389,-8.86649 -9.02853,-15.13374 -18.00391,-15.14491 z"
       style="fill:none;stroke:#555555;stroke-width:0.17716536;stroke-opacity:1"
       sodipodi:nodetypes="ccsssscccsssscc" />
  </g>
</svg>
