<?xml version="1.0" encoding="UTF-8" standalone="no"?>
<!-- Created with Inkscape (http://www.inkscape.org/) -->

<svg
   xmlns:dc="http://purl.org/dc/elements/1.1/"
   xmlns:cc="http://creativecommons.org/ns#"
   xmlns:rdf="http://www.w3.org/1999/02/22-rdf-syntax-ns#"
   xmlns:svg="http://www.w3.org/2000/svg"
   xmlns="http://www.w3.org/2000/svg"
   xmlns:sodipodi="http://sodipodi.sourceforge.net/DTD/sodipodi-0.dtd"
   xmlns:inkscape="http://www.inkscape.org/namespaces/inkscape"
   width="210mm"
   height="297mm"
   viewBox="0 0 744.09448819 1052.3622047"
   id="svg8450"
   version="1.1"
   inkscape:version="0.91 r13725"
   sodipodi:docname="shapes.svg">
  <defs
     id="defs8452" />
  <sodipodi:namedview
     id="base"
     pagecolor="#ffffff"
     bordercolor="#666666"
     borderopacity="1.0"
     inkscape:pageopacity="0.0"
     inkscape:pageshadow="2"
     inkscape:zoom="1.6419672"
     inkscape:cx="542.87737"
     inkscape:cy="433.85401"
     inkscape:document-units="mm"
     inkscape:current-layer="layer1"
     showgrid="false"
     inkscape:window-width="1301"
     inkscape:window-height="744"
     inkscape:window-x="65"
     inkscape:window-y="24"
     inkscape:window-maximized="1"
     showguides="false" />
  <metadata
     id="metadata8455">
    <rdf:RDF>
      <cc:Work
         rdf:about="">
        <dc:format>image/svg+xml</dc:format>
        <dc:type
           rdf:resource="http://purl.org/dc/dcmitype/StillImage" />
        <dc:title />
      </cc:Work>
    </rdf:RDF>
  </metadata>
  <g
     inkscape:label="Layer 1"
     inkscape:groupmode="layer"
     id="layer1">
    <path
       style="fill:none;stroke:#555555;stroke-width:0.17716536;stroke-opacity:1"
       d="m 93.091116,727.20684 c -3.1832,0 -5.74504,2.56287 -5.75,5.83008 0,0 0.64521,35.63166 -17.62692,76.21093 -11.61949,25.8049 -36.33969,48.05274 -36.33969,48.05274 l 32.13853,54.43359 50.164014,0.0234 50.16601,-0.0234 32.1367,-54.43359 c 0,0 -24.72032,-22.24782 -36.33982,-48.05274 -18.27216,-40.57927 -17.625,-76.21093 -17.625,-76.21093 -0.007,-3.26721 -2.56875,-5.83008 -5.75195,-5.83008 z"
       id="path3238"
       inkscape:connector-curvature="0" />
    <path
       style="fill:none;stroke:#555555;stroke-width:0.17716536;stroke-opacity:1"
       d="m 530.77266,692.80859 c 0.0113,8.97538 6.54756,16.61 15.41405,18.0039 l 0,-7.40429 c 0,-0.94516 0.75991,-1.70508 1.70508,-1.70508 l 2.25781,0 c 0.94516,0 1.70703,0.75992 1.70703,1.70508 l 0,7.41601 c 8.8701,-1.39545 15.40685,-9.03643 15.41211,-18.01562 -0.005,-8.97919 -6.54201,-16.62018 -15.41211,-18.01563 l 0,7.41602 c 0,0.94517 -0.76187,1.70703 -1.70703,1.70703 l -2.25781,0 c -0.94517,0 -1.70508,-0.76186 -1.70508,-1.70703 l 0,-7.4043 c -8.8665,1.39389 -15.40288,9.02853 -15.41405,18.00391 z"
       id="path9048"
       inkscape:connector-curvature="0" />
    <path
       style="fill:none;stroke:#555555;stroke-width:0.17716536;stroke-opacity:1"
       d="m 530.06367,637.58754 c 0.0117,9.17021 6.70444,16.96388 15.76757,18.36131 l 0,-8.98437 c 0,-0.77728 0.627,-1.4043 1.40429,-1.4043 l 2.86328,0 c 0.77729,0 1.40235,0.62702 1.40235,1.4043 l 0,8.99414 c 9.06677,-1.398 15.76067,-9.19717 15.76758,-18.37108 -0.007,-9.17392 -6.70081,-16.9731 -15.76758,-18.37109 l 0,8.99609 c 0,0.77728 -0.62506,1.40234 -1.40235,1.40234 l -2.86328,0 c -0.77729,0 -1.40429,-0.62506 -1.40429,-1.40234 l 0,-8.98632 c -9.06313,1.39742 -15.75585,9.1911 -15.76757,18.36132 z"
       id="path9046"
       inkscape:connector-curvature="0" />
    <path
       style="fill:none;stroke:#555555;stroke-width:0.17716536;stroke-opacity:1"
       d="m 299.3448,505.00286 c 0.006,13.08557 9.84789,24.07518 22.85351,25.51951 l 0,-13.8535 c 0,-1.06503 0.8588,-1.92188 1.92383,-1.92188 l 1.82422,0 c 1.06503,0 1.92187,0.85685 1.92187,1.92188 l 0,13.83593 c 12.99973,-1.44267 22.84006,-12.42242 22.85547,-25.50194 -0.0156,-13.07951 -9.85574,-24.05926 -22.85547,-25.50193 l 0,13.83593 c 0,1.06502 -0.85684,1.92187 -1.92187,1.92187 l -1.82423,0 c -1.06502,0 -1.92383,-0.85685 -1.92383,-1.92187 l 0,-13.85351 c -13.00562,1.44434 -22.84715,12.43395 -22.8535,25.51951 z"
       id="path9044"
       inkscape:connector-curvature="0" />
    <path
       style="fill:none;stroke:#555555;stroke-width:0.17716536;stroke-opacity:1"
       d="m 286.35845,710.83924 c 1.43581,1.5e-4 2.5918,-0.81772 2.5918,-1.83203 l 0,-2.9043 0,-14.42773 0,-58.40821 0,-14.42577 0,-2.90431 c 0,-1.01432 -1.15599,-1.83217 -2.5918,-1.83202 l -3.4375,0.002 c -1.43582,1.4e-4 -2.58984,0.81575 -2.58984,1.83007 l 0,3.30664 -19.25391,0 0,-3.30664 c -0.74151,-0.6921 -1.15598,-1.83203 -2.5918,-1.83203 l -3.43945,0 c -1.43582,0 -2.5918,0.81771 -2.5918,1.83203 l 0,2.90431 0,14.42578 0,58.4082 0,14.42773 0,2.9043 c 0,1.01432 1.15598,1.83007 2.5918,1.83007 l 3.43945,0 c 1.43582,0 2.5918,-0.81575 2.5918,-1.83007 l 0,-3.30664 19.25391,0 0,3.30664 c 0.74174,0.69185 1.15402,1.82993 2.58984,1.83007 z"
       id="path9042"
       inkscape:connector-curvature="0" />
    <path
       style="fill:none;stroke:#555555;stroke-width:0.17716536;stroke-opacity:1"
       d="m 267.71937,572.41653 0.002,3.57227 c 5.5e-4,1.46371 1.29355,2.64258 2.90234,2.64258 l 4.60742,0 22.88086,0 92.63867,0 22.88282,0 4.60547,0 c 1.60877,0 2.9068,-1.17887 2.90625,-2.64258 l 0,-3.57227 c -5.6e-4,-1.46371 -1.29748,-2.64062 -2.90625,-2.64062 l -2.23047,0 0,-19.49022 2.23047,0 c 1.60877,0 2.90625,-1.17887 2.90625,-2.64258 l 0,-3.57422 c 0,-1.4637 -1.29748,-2.64257 -2.90625,-2.64257 l -4.60547,0 -22.88282,0 -92.63867,0 -22.88086,0 -4.60742,0 c -1.60879,0 -2.9043,1.17887 -2.9043,2.64257 l 0,3.57422 c 0,1.46371 1.29551,2.64258 2.9043,2.64258 l 2.23437,0 0,19.49022 -2.23437,0 c -1.60879,0 -2.90485,1.17691 -2.90429,2.64062 z"
       id="path9040"
       inkscape:connector-curvature="0" />
    <path
       style="fill:none;stroke:#555555;stroke-width:0.17716536;stroke-opacity:1"
       d="m 376.74318,727.31943 c 0,-1.72395 -1.38932,-3.11132 -3.11329,-3.11132 l -5.26563,0 -154.38477,0 -5.26562,0 c -1.72396,0 -3.11328,1.38737 -3.11328,3.11132 l 0,7.94922 c 0,1.72397 1.38932,3.11133 3.11328,3.11133 l 2.02539,0 0,19.48826 -2.02539,0 c -1.72396,0 -3.11328,1.38932 -3.11328,3.11328 l 0,7.94921 c 0,1.72397 1.38932,3.11133 3.11328,3.11133 l 5.26562,0 154.38477,0 5.26563,0 c 1.72397,0 3.11329,-1.38736 3.11329,-3.11133 l 0,-7.94921 c 0,-1.72396 -1.38932,-3.11328 -3.11329,-3.11328 l -2.02539,0 0,-19.48826 2.02539,0 c 1.72397,0 3.11329,-1.38736 3.11329,-3.11133 z"
       id="path9038"
       inkscape:connector-curvature="0" />
    <path
       style="fill:none;stroke:#555555;stroke-width:0.17716536;stroke-opacity:1"
       d="m 422.14563,497.50362 c 0.0113,8.97538 6.54757,16.61 15.41406,18.0039 l 0,-7.40429 c 0,-0.94516 0.75992,-1.70508 1.70508,-1.70508 l 2.25781,0 c 0.94516,0 1.70703,0.75992 1.70703,1.70508 l 0,7.41601 c 8.87009,-1.39545 15.40684,-9.03643 15.41211,-18.01562 -0.005,-8.97919 -6.54201,-16.62018 -15.41211,-18.01563 l 0,7.41602 c 0,0.94517 -0.76187,1.70703 -1.70703,1.70703 l -2.25781,0 c -0.94516,0 -1.70508,-0.76186 -1.70508,-1.70703 l 0,-7.4043 c -8.86649,1.3939 -15.40289,9.02853 -15.41406,18.00391 z"
       id="path9036"
       inkscape:connector-curvature="0" />
    <path
       style="fill:none;stroke:#555555;stroke-width:0.17716536;stroke-opacity:1"
       d="m 205.60052,497.85876 c 0.0117,9.17021 6.70446,16.96389 15.76758,18.36131 l 0,-8.98437 c 0,-0.77728 0.62703,-1.4043 1.40429,-1.4043 l 2.86329,0 c 0.77729,0 1.40234,0.62702 1.40234,1.4043 l 0,8.99414 c 9.06678,-1.398 15.76068,-9.19717 15.76758,-18.37108 -0.007,-9.17392 -6.7008,-16.9731 -15.76758,-18.37109 l 0,8.99609 c 0,0.77728 -0.62506,1.40234 -1.40234,1.40234 l -2.86329,0 c -0.77726,0 -1.40429,-0.62506 -1.40429,-1.40234 l 0,-8.98632 c -9.06312,1.39742 -15.75585,9.1911 -15.76758,18.36132 z"
       id="path9034"
       inkscape:connector-curvature="0" />
    <path
       style="fill:none;stroke:#555555;stroke-width:0.17716536;stroke-opacity:1"
       d="m 515.88983,505.00286 c 0.006,13.08556 9.84789,24.07517 22.85352,25.51951 l 0,-13.8535 c 0,-1.06503 0.85879,-1.92188 1.92382,-1.92188 l 1.82422,0 c 1.06503,0 1.92187,0.85685 1.92187,1.92188 l 0,13.83593 c 12.99973,-1.44267 22.84005,-12.42242 22.85547,-25.50194 -0.0152,-13.07951 -9.85574,-24.05926 -22.85547,-25.50193 l 0,13.83593 c 0,1.06502 -0.85684,1.92187 -1.92187,1.92187 l -1.82422,0 c -1.06503,0 -1.92382,-0.85685 -1.92382,-1.92187 l 0,-13.85351 c -13.00563,1.44434 -22.84716,12.43395 -22.85352,25.51951 z"
       id="path9032"
       inkscape:connector-curvature="0" />
    <path
       style="fill:none;stroke:#555555;stroke-width:0.17716534;stroke-miterlimit:4;stroke-dasharray:none;stroke-opacity:1"
       d="m 304.23302,617.59244 c 0,1.24576 1.18364,2.89344 2.25094,2.25094 l 4.50455,0 0,4.84348 c 0,2.49559 2.00891,4.50189 4.50452,4.50189 l 65.64006,0 c 2.49558,0 4.50453,-2.0063 4.50453,-4.50189 l 0,-29.59057 c 0,-2.49558 -2.00895,-4.50187 -4.50453,-4.50187 l -65.64006,0 c -2.4956,0 -4.50452,2.00629 -4.50452,4.50187 l 0,4.84349 -4.50454,0 c -1.0673,-0.64252 -2.25094,1.00517 -2.25094,2.25093 z"
       id="path9030"
       inkscape:connector-curvature="0" />
    <path
       style="fill:none;stroke:#555555;stroke-width:0.17716536;stroke-opacity:1"
       d="m 298.19161,675.43888 c 0,19.55098 15.84743,35.40036 35.39844,35.40036 6.55793,-0.0765 12.61357,-3.75297 19.77538,-6.37109 7.16183,-2.61812 25.42985,-4.17791 36.41408,-0.0255 1.70275,-10e-4 3.0743,-1.36951 3.0742,-3.07227 l 0,-51.8613 c 0,-1.70276 -1.37145,-3.07114 -3.0742,-3.07226 -10.98423,4.15252 -29.25225,2.59112 -36.41408,-0.0273 -7.16183,-2.6186 -13.21745,-6.29457 -19.77539,-6.37109 -19.551,0 -35.39845,15.84942 -35.39843,35.40039 z"
       id="path9028"
       inkscape:connector-curvature="0" />
    <path
       inkscape:connector-curvature="0"
       id="path9050"
       d="m 567.26874,727.31943 c 0,-1.72395 -1.3893,-3.11132 -3.11329,-3.11132 l -5.2656,0 -154.38477,0 -5.26562,0 c -1.72396,0 -3.11328,1.38737 -3.11328,3.11132 l 0,7.94921 c 0,1.72397 1.38932,3.11133 3.11328,3.11133 l 2.02539,0 0,19.48826 -2.02539,0 c -1.72396,0 -3.11328,1.38932 -3.11328,3.11328 l 0,7.94922 c 0,1.72397 1.38932,3.11133 3.11328,3.11133 l 5.26562,0 154.38477,0 5.2656,0 c 1.724,0 3.11329,-1.38736 3.11329,-3.11133 l 0,-7.94922 c 0,-1.72396 -1.3893,-3.11328 -3.11329,-3.11328 l -2.0254,0 0,-19.48826 2.0254,0 c 1.724,0 3.11329,-1.38736 3.11329,-3.11133 z"
       style="fill:none;stroke:#555555;stroke-width:0.17716536;stroke-opacity:1" />
    <path
       inkscape:connector-curvature="0"
       id="path9052"
       d="m 211.81544,557.41341 -3.57227,0.002 c -1.46371,5.5e-4 -2.64258,1.29355 -2.64258,2.90234 l 0,4.60742 0,22.88086 0,92.63867 0,22.88282 0,4.60547 c 0,1.60877 1.17887,2.9068 2.64258,2.90625 l 3.57227,0 c 1.46371,-5.6e-4 2.64062,-1.29748 2.64062,-2.90625 l 0,-2.23047 19.49023,0 0,2.23047 c 0,1.60877 1.17887,2.90625 2.64258,2.90625 l 3.57422,0 c 1.4637,0 2.64257,-1.29748 2.64257,-2.90625 l 0,-4.60547 0,-22.88282 0,-92.63867 0,-22.88086 0,-4.60742 c 0,-1.60879 -1.17887,-2.9043 -2.64257,-2.9043 l -3.57422,0 c -1.46371,0 -2.64258,1.29551 -2.64258,2.9043 l 0,2.23437 -19.49023,0 0,-2.23437 c 0,-1.60879 -1.17691,-2.90485 -2.64062,-2.90429 z"
       style="fill:none;stroke:#555555;stroke-width:0.17716536;stroke-opacity:1" />
    <path
       inkscape:connector-curvature="0"
       id="path9054"
       d="m 360.74521,505.00286 c 0.006,13.08557 9.84789,24.07518 22.85351,25.51951 l 0,-13.8535 c 0,-1.06503 0.8588,-1.92188 1.92383,-1.92188 l 1.82422,0 c 1.06503,0 1.92187,0.85685 1.92187,1.92188 l 0,13.83593 c 12.99973,-1.44267 22.84006,-12.42242 22.85547,-25.50194 -0.0156,-13.07951 -9.85574,-24.05926 -22.85547,-25.50193 l 0,13.83593 c 0,1.06502 -0.85684,1.92187 -1.92187,1.92187 l -1.82422,0 c -1.06503,0 -1.92383,-0.85685 -1.92383,-1.92187 l 0,-13.85351 c -13.00562,1.44434 -22.84716,12.43395 -22.85351,25.51951 z"
       style="fill:none;stroke:#555555;stroke-width:0.17716536;stroke-opacity:1" />
    <path
       inkscape:connector-curvature="0"
       id="path9056"
       d="m 515.88984,574.86723 c 0.006,13.08556 9.84789,24.07517 22.85351,25.51951 l 0,-13.8535 c 0,-1.06503 0.8588,-1.92188 1.92383,-1.92188 l 1.82422,0 c 1.06503,0 1.92187,0.85685 1.92187,1.92188 l 0,13.83593 c 12.99973,-1.44267 22.84005,-12.42242 22.85547,-25.50194 -0.0152,-13.07951 -9.85574,-24.05926 -22.85547,-25.50193 l 0,13.83593 c 0,1.06502 -0.85684,1.92187 -1.92187,1.92187 l -1.82422,0 c -1.06503,0 -1.92383,-0.85685 -1.92383,-1.92187 l 0,-13.85351 c -13.00562,1.44434 -22.84715,12.43395 -22.85351,25.51951 z"
       style="fill:none;stroke:#555555;stroke-width:0.17716536;stroke-opacity:1" />
    <path
       inkscape:connector-curvature="0"
       id="path9058"
       d="m 252.82715,497.50362 c 0.0113,8.97538 6.54757,16.61 15.41406,18.0039 l 0,-7.40429 c 0,-0.94516 0.75991,-1.70508 1.70508,-1.70508 l 2.25781,0 c 0.94516,0 1.70703,0.75992 1.70703,1.70508 l 0,7.41601 c 8.8701,-1.39545 15.40685,-9.03643 15.41211,-18.01562 -0.005,-8.97919 -6.54201,-16.62018 -15.41211,-18.01563 l 0,7.41602 c 0,0.94517 -0.76187,1.70703 -1.70703,1.70703 l -2.25781,0 c -0.94517,0 -1.70508,-0.76186 -1.70508,-1.70703 l 0,-7.4043 c -8.86649,1.39389 -15.40289,9.02853 -15.41406,18.00391 z"
       style="fill:none;stroke:#555555;stroke-width:0.17716536;stroke-opacity:1" />
    <path
       inkscape:connector-curvature="0"
       id="path9060"
       d="m 468.66324,497.85876 c 0.0117,9.17021 6.70444,16.96388 15.76757,18.36131 l 0,-8.98437 c 0,-0.77728 0.627,-1.4043 1.40429,-1.4043 l 2.86328,0 c 0.77729,0 1.40235,0.62702 1.40235,1.4043 l 0,8.99414 c 9.06677,-1.398 15.76067,-9.19717 15.76758,-18.37108 -0.007,-9.17392 -6.70081,-16.9731 -15.76758,-18.37109 l 0,8.99609 c 0,0.77728 -0.62506,1.40234 -1.40235,1.40234 l -2.86328,0 c -0.77729,0 -1.40429,-0.62506 -1.40429,-1.40234 l 0,-8.98632 c -9.06313,1.39742 -15.75586,9.1911 -15.76757,18.36132 z"
       style="fill:none;stroke:#555555;stroke-width:0.17716536;stroke-opacity:1" />
    <path
       inkscape:connector-curvature="0"
       id="path9062"
       d="m 402.21081,687.44081 c 0,19.551 39.84943,23.39843 59.4004,23.39843 l 6e-5,0 c 19.55098,0 59.40036,-3.84743 59.40036,-23.39843 l 0,-29.99999 0,-30 c -0.0765,-6.55793 -21.30376,-20.42078 -26.37109,-33.77539 -7.63212,-20.11394 -8.17791,-53.42985 -4.0255,-64.41407 -0.001,-1.70275 -1.36951,-3.07431 -3.07227,-3.07421 l -51.8613,0 c -1.70276,0 -3.07114,1.37146 -3.07226,3.07421 4.15252,10.98422 3.60511,44.30021 -4.0273,64.41407 -5.06752,13.35454 -26.29458,27.21746 -26.3711,33.77539 l 0,30 z"
       style="fill:none;stroke:#555555;stroke-width:0.17716536;stroke-opacity:1"
       sodipodi:nodetypes="csscccaccscaccc" />
    <path
       sodipodi:nodetypes="csscccaccscaccc"
       style="fill:none;stroke:#555555;stroke-width:0.17716536;stroke-opacity:1"
       d="m 590.21081,701.44081 c 0,19.551 39.84943,-0.60157 59.4004,-0.60157 l 6e-5,0 c 19.55098,0 59.40036,20.15257 59.40036,0.60157 l 0,-43.99999 0,-30 c -0.0765,-6.55793 -21.30376,-20.42078 -26.37109,-33.77539 -7.63212,-20.11394 -8.17791,-53.42985 -4.0255,-64.41407 -10e-4,-1.70275 -1.36951,-3.07431 -3.07227,-3.07421 l -51.8613,0 c -1.70276,0 -3.07114,1.37146 -3.07226,3.07421 4.15252,10.98422 3.60511,44.30021 -4.0273,64.41407 -5.06752,13.35454 -26.29458,27.21746 -26.3711,33.77539 l 0,30 z"
       id="path4166"
       inkscape:connector-curvature="0" />
  </g>
</svg>
