<?xml version="1.0" encoding="UTF-8" standalone="no"?>
<!-- Created with Inkscape (http://www.inkscape.org/) -->

<svg
   xmlns:pcbmode="pcbmode"
   xmlns:dc="http://purl.org/dc/elements/1.1/"
   xmlns:cc="http://creativecommons.org/ns#"
   xmlns:rdf="http://www.w3.org/1999/02/22-rdf-syntax-ns#"
   xmlns:svg="http://www.w3.org/2000/svg"
   xmlns="http://www.w3.org/2000/svg"
   xmlns:sodipodi="http://sodipodi.sourceforge.net/DTD/sodipodi-0.dtd"
   xmlns:inkscape="http://www.inkscape.org/namespaces/inkscape"
   width="210mm"
   height="297mm"
   viewBox="0 0 744.09448819 1052.3622047"
   id="svg8450"
   version="1.1"
   inkscape:version="0.91 r13725"
   sodipodi:docname="shapes.svg">
  <defs
     id="defs8452" />
  <sodipodi:namedview
     id="base"
     pagecolor="#ffffff"
     bordercolor="#666666"
     borderopacity="1.0"
     inkscape:pageopacity="0.0"
     inkscape:pageshadow="2"
     inkscape:zoom="2.3220923"
     inkscape:cx="732.72955"
     inkscape:cy="313.91772"
     inkscape:document-units="mm"
     inkscape:current-layer="layer1"
     showgrid="false"
     inkscape:window-width="1881"
     inkscape:window-height="1056"
     inkscape:window-x="39"
     inkscape:window-y="24"
     inkscape:window-maximized="1"
     showguides="true"
     inkscape:snap-global="false" />
  <metadata
     id="metadata8455">
    <rdf:RDF>
      <cc:Work
         rdf:about="">
        <dc:format>image/svg+xml</dc:format>
        <dc:type
           rdf:resource="http://purl.org/dc/dcmitype/StillImage" />
        <dc:title />
      </cc:Work>
    </rdf:RDF>
  </metadata>
  <g
     inkscape:label="Layer 1"
     inkscape:groupmode="layer"
     id="layer1">
    <path
       style="fill:none;stroke:#555555;stroke-width:0.17716536;stroke-opacity:1"
       d="m -54.29307,584.08583 c -3.1832,0 -5.74504,2.56287 -5.75,5.83008 0,0 0.64521,35.63166 -17.62692,76.21093 -11.61949,25.8049 -36.33969,48.05274 -36.33969,48.05274 l 32.13853,54.43359 50.164014,0.0234 50.16601,-0.0234 32.1367,-54.43359 c 0,0 -24.72032,-22.24782 -36.33982,-48.05274 -18.2721605,-40.57927 -17.6250005,-76.21093 -17.6250005,-76.21093 -0.007,-3.26721 -2.56875,-5.83008 -5.75195,-5.83008 z"
       id="path3238"
       inkscape:connector-curvature="0" />
    <path
       style="fill:none;stroke:#555555;stroke-width:0.17716536;stroke-opacity:1"
       d="m 320.36909,576.92646 c -1.5e-4,1.43581 1.08687,2.5918 2.10118,2.5918 l 2.63515,0 87.26171,0 2.52367,0 c 1.01432,0 2.21281,-1.15599 2.21266,-2.5918 l -0.002,-2.23027 c -1.4e-4,-1.43582 -1.22907,-2.33444 -2.21071,-2.58984 l -2.926,0 0,-21.53776 2.926,0 c 1.03468,0.0578 2.21267,-1.15598 2.21267,-2.5918 l 0,-2.36283 c 0,-1.43582 -1.19835,-2.5918 -2.21267,-2.5918 l -2.52367,0 -87.26171,0 -2.63515,0 c -1.01432,0 -2.09922,1.15598 -2.09922,2.5918 l 0,2.36283 c 0,1.43582 1.0849,2.5918 2.09922,2.5918 l 3.03749,0 0,21.40715 -3.03749,0 c -1.14941,0.0689 -2.126,1.26168 -2.09922,2.58984 z"
       id="path9042"
       inkscape:connector-curvature="0"
       sodipodi:nodetypes="csccsccscccsssccssssccccc" />
    <path
       style="fill:none;stroke:#555555;stroke-width:0.17716536;stroke-opacity:1"
       d="m 378.74318,721.22917 c 0,-1.72395 -1.38932,-3.11132 -3.11329,-3.11132 l -164.91602,0 c -1.72396,0 -3.11328,1.38737 -3.11328,3.11132 l 0,4.71937 c 0,1.72397 1.32457,3.11133 3.11328,3.11133 l 2.02539,0 0,25.94796 -2.02539,0 c -1.72396,0 -3.11328,1.38932 -3.11328,3.11328 l 0,4.71936 c 0,1.72397 1.38932,3.11133 3.11328,3.11133 l 164.91602,0 c 1.72397,0 3.11329,-1.38736 3.11329,-3.11133 l 0,-4.71936 c 0,-1.72396 -1.38932,-3.11328 -3.11329,-3.11328 l -2.02539,0 0,-25.94796 2.02539,0 c 1.72397,0 3.11329,-1.38736 3.11329,-3.11133 z"
       id="path9038"
       inkscape:connector-curvature="0"
       sodipodi:nodetypes="sccsssccsssccsssccsss" />
    <path
       style="fill:none;stroke:#555555;stroke-width:0.17716534;stroke-miterlimit:4;stroke-dasharray:none;stroke-opacity:1"
       d="m 306.23302,617.59244 c -0.10766,1.19193 1.12981,2.19364 2.25094,2.25094 l 2.82761,0 c 1.12492,0.005 1.73077,0.99975 1.67694,2.1957 l 0,2.64778 c 0,2.49559 2.00891,4.50189 4.50452,4.50189 l 65.64006,0 c 2.49558,0 4.50453,-2.0063 4.50453,-4.50189 l 0,-29.59057 c 0,-2.49558 -2.00895,-4.50187 -4.50453,-4.50187 l -65.64006,0 c -2.4956,0 -4.50452,2.00629 -4.50452,4.50187 l 0,2.93427 c 0.13185,1.15953 -0.95401,1.99382 -1.67694,1.90922 l -2.8276,0 c -1.17496,-0.0504 -2.25094,1.00517 -2.25094,2.25093 z"
       id="path9030"
       inkscape:connector-curvature="0"
       sodipodi:nodetypes="ccccsssssssscccsc" />
    <path
       style="fill:none;stroke:#555555;stroke-width:0.17716536;stroke-opacity:1"
       d="m 300.19161,675.43888 c 0,19.55098 15.84743,35.40036 35.39844,35.40036 6.55793,-0.0765 16.92003,-5.9062 24.08184,-8.52432 7.16183,-2.61812 21.71816,-5.963 28.10762,-3.87227 6.38946,2.09075 7.0743,-1.36951 7.0742,-3.07227 l 0,-39.8613 c 0,-1.70276 -0.68472,-5.16301 -7.0742,-3.07226 -6.38948,2.09075 -20.94579,-1.25565 -28.10762,-3.87407 -7.16183,-2.6186 -17.52391,-8.4478 -24.08185,-8.52432 -19.551,0 -35.39845,15.84942 -35.39843,35.40039 z"
       id="path9028"
       inkscape:connector-curvature="0"
       sodipodi:nodetypes="scszcszccss" />
    <path
       inkscape:connector-curvature="0"
       id="path9050"
       d="m 567.26874,721.22917 c 0,-1.72395 -1.3893,-3.11132 -3.11329,-3.11132 l -164.91599,0 c -1.72396,0 -3.11328,1.38737 -3.11328,3.11132 l 0,4.71936 c 0,1.72397 1.59102,2.30216 3.11328,3.11133 l 2.02539,0 0,25.94796 -2.02539,0 c -1.72396,0 -3.11328,1.38932 -3.11328,3.11328 l 0,4.71937 c 0,1.72397 1.38932,3.11133 3.11328,3.11133 l 164.91599,0 c 1.724,0 3.11329,-1.38736 3.11329,-3.11133 l 0,-4.71937 c 0,-1.72396 -1.3893,-3.11328 -3.11329,-3.11328 l -2.0254,0 0,-25.94796 2.0254,0 c 1.724,0 3.11329,-1.38736 3.11329,-3.11133 z"
       style="fill:none;stroke:#555555;stroke-width:0.17716536;stroke-opacity:1"
       sodipodi:nodetypes="sccsssccsssccsssccsss" />
    <path
       sodipodi:nodetypes="csscccazcszaccc"
       style="fill:none;stroke:#555555;stroke-width:0.17716536;stroke-opacity:1"
       d="m 404.21081,701.87166 c 0,19.551 19.84943,-0.60157 39.4004,-0.60157 l 40.00006,0 c 19.55098,0 39.40036,20.15257 39.40036,0.60157 l 0,-43.99999 0,-40 c -0.0765,-6.55793 -20.42176,-20.78967 -26.37109,-33.77539 -7.13643,-15.57681 -12.11625,-44.02462 -10.0255,-50.41407 2.09075,-6.38945 -1.36951,-7.07431 -3.07227,-7.07421 l -39.8613,0 c -1.70276,0 -5.16301,0.68474 -3.07226,7.07421 2.09075,6.38947 -2.89056,34.83728 -10.0273,50.41407 -5.94956,12.98562 -26.29458,27.21746 -26.3711,33.77539 l 0,40 z"
       id="path4166"
       inkscape:connector-curvature="0" />
    <path
       style="fill:none;stroke:#555555;stroke-width:0.16680637;stroke-opacity:1"
       d="m 518.89918,574.75781 c 0.006,12.32043 8.89144,22.66747 21.13661,24.02736 l 0,-11.96393 c 0,-1.00276 1.18922,-1.80951 2.19198,-1.80951 l 1.71756,0 c 1.00276,0 2.19014,0.80675 2.19014,1.80951 l 0,11.94739 c 12.23962,-1.35831 21.12393,-11.69607 21.13845,-24.01082 -0.0143,-12.31474 -8.89883,-22.6525 -21.13845,-24.01081 l 0,11.94739 c 0,1.00275 -1.18738,1.8095 -2.19014,1.8095 l -1.71756,0 c -1.00276,0 -2.19198,-0.80675 -2.19198,-1.8095 l 0,-11.96394 c -12.24517,1.35988 -21.13062,11.70692 -21.13661,24.02736 z"
       id="path4155"
       inkscape:connector-curvature="0"
       sodipodi:nodetypes="ccsssscccsssscc" />
    <path
       sodipodi:nodetypes="ccsssscccsssscc"
       style="fill:none;stroke:#555555;stroke-width:0.17716536;stroke-opacity:1"
       d="m 273.41417,482.1112 c -8.97538,0.0113 -16.61,6.27842 -18.0039,15.14491 l 7.85023,0 c 0.94516,0 1.70508,1.02906 1.70508,1.97423 l 0,2.25781 c 0,0.94516 -0.75992,1.97618 -1.70508,1.97618 l -7.86195,0 c 1.39545,8.8701 9.03643,15.1377 18.01562,15.14296 8.97919,-0.005 16.62018,-6.27286 18.01563,-15.14296 l -7.86196,0 c -0.94517,0 -1.70703,-1.03102 -1.70703,-1.97618 l 0,-2.25781 c 0,-0.94517 0.76186,-1.97423 1.70703,-1.97423 l 7.85024,0 c -1.39389,-8.86649 -9.02853,-15.13374 -18.00391,-15.14491 z"
       id="path4163"
       inkscape:connector-curvature="0" />
    <path
       sodipodi:nodetypes="ccccsssssssscccsc"
       inkscape:connector-curvature="0"
       id="path4206"
       d="m 207.60715,541.08145 c -0.10766,1.19193 1.12981,2.19364 2.25094,2.25094 l 1.75099,0 c 1.12492,0.005 1.73077,0.59602 1.67694,1.79197 l 0,3.52895 c 0,1.87654 1.42197,2.50189 2.50452,2.50189 l 82.56345,0 c 2.49558,0 4.50453,-2.0063 4.50453,-4.50189 l 0,-17.94627 c 0,-2.49558 -2.00895,-4.50187 -4.50453,-4.50187 l -82.56345,0 c -1.67468,0 -2.50452,0.94833 -2.50452,2.50187 l 0,3.81544 c 0.0242,1.06533 -0.84635,1.48243 -1.67694,1.50549 l -1.75098,0 c -1.17496,-0.0504 -2.25094,1.00517 -2.25094,2.25093 z"
       style="fill:none;stroke:#555555;stroke-width:0.17716534;stroke-miterlimit:4;stroke-dasharray:none;stroke-opacity:1" />
    <path
       sodipodi:nodetypes="ccsssscccsssscc"
       inkscape:connector-curvature="0"
       id="path4239"
       d="m 329.17574,481.95579 c -12.32043,0.006 -22.66747,8.89144 -24.02736,21.13661 l 11.96393,0 c 1.00276,0 1.80951,1.18922 1.80951,2.19198 l 0,1.71756 c 0,1.00276 -0.80675,2.19014 -1.80951,2.19014 l -11.94739,0 c 1.35831,12.23962 11.69607,21.12393 24.01082,21.13845 12.31474,-0.0143 22.6525,-8.89883 24.01081,-21.13845 l -11.94739,0 c -1.00275,0 -1.8095,-1.18738 -1.8095,-2.19014 l 0,-1.71756 c 0,-1.00276 0.80675,-2.19198 1.8095,-2.19198 l 11.96394,0 c -1.35988,-12.24517 -11.70692,-21.13062 -24.02736,-21.13661 z"
       style="fill:none;stroke:#555555;stroke-width:0.16680637;stroke-opacity:1" />
    <path
       style="fill:none;stroke:#555555;stroke-width:0.16680637;stroke-opacity:1"
       d="m 387.43465,481.95579 c -12.32043,0.006 -22.66747,8.89144 -24.02736,21.13661 l 11.96393,0 c 1.00276,0 1.80951,1.18922 1.80951,2.19198 l 0,1.71756 c 0,1.00276 -0.80675,2.19014 -1.80951,2.19014 l -11.94739,0 c 1.35831,12.23962 11.69607,21.12393 24.01082,21.13845 12.31474,-0.0143 22.6525,-8.89883 24.01081,-21.13845 l -11.94739,0 c -1.00275,0 -1.8095,-1.18738 -1.8095,-2.19014 l 0,-1.71756 c 0,-1.00276 0.80675,-2.19198 1.8095,-2.19198 l 11.96394,0 c -1.35988,-12.24517 -11.70692,-21.13062 -24.02736,-21.13661 z"
       id="path4241"
       inkscape:connector-curvature="0"
       sodipodi:nodetypes="ccsssscccsssscc" />
    <path
       inkscape:connector-curvature="0"
       id="path4245"
       d="m 567.48613,635.37117 c -0.0113,-8.97538 -6.27842,-16.61 -15.14491,-18.0039 l 0,7.85023 c 0,0.94516 -1.02906,1.70508 -1.97423,1.70508 l -2.25781,0 c -0.94516,0 -1.97618,-0.75992 -1.97618,-1.70508 l 0,-7.86195 c -8.8701,1.39545 -15.1377,9.03643 -15.14296,18.01562 0.005,8.97919 6.27286,16.62018 15.14296,18.01563 l 0,-7.86196 c 0,-0.94517 1.03102,-1.70703 1.97618,-1.70703 l 2.25781,0 c 0.94517,0 1.97423,0.76186 1.97423,1.70703 l 0,7.85024 c 8.86649,-1.39389 15.13374,-9.02853 15.14491,-18.00391 z"
       style="fill:none;stroke:#555555;stroke-width:0.17716536;stroke-opacity:1"
       sodipodi:nodetypes="ccsssscccsssscc" />
    <path
       inkscape:connector-curvature="0"
       id="path4247"
       d="m 567.48613,689.98323 c -0.0113,-8.97538 -6.27842,-16.61 -15.14491,-18.0039 l 0,7.85023 c 0,0.94516 -1.02906,1.70508 -1.97423,1.70508 l -2.25781,0 c -0.94516,0 -1.97618,-0.75992 -1.97618,-1.70508 l 0,-7.86195 c -8.8701,1.39545 -15.1377,9.03643 -15.14296,18.01562 0.005,8.97919 6.27286,16.62018 15.14296,18.01563 l 0,-7.86196 c 0,-0.94517 1.03102,-1.70703 1.97618,-1.70703 l 2.25781,0 c 0.94517,0 1.97423,0.76186 1.97423,1.70703 l 0,7.85024 c 8.86649,-1.39389 15.13374,-9.02853 15.14491,-18.00391 z"
       style="fill:none;stroke:#555555;stroke-width:0.17716536;stroke-opacity:1"
       sodipodi:nodetypes="ccsssscccsssscc" />
    <path
       sodipodi:nodetypes="ccsssscccsssscc"
       style="fill:none;stroke:#555555;stroke-width:0.17716536;stroke-opacity:1"
       d="m 441.36911,482.1112 c -8.97538,0.0113 -16.61,6.27842 -18.0039,15.14491 l 7.85023,0 c 0.94516,0 1.70508,1.02906 1.70508,1.97423 l 0,2.25781 c 0,0.94516 -0.75992,1.97618 -1.70508,1.97618 l -7.86195,0 c 1.39545,8.8701 9.03643,15.1377 18.01562,15.14296 8.97919,-0.005 16.62018,-6.27286 18.01563,-15.14296 l -7.86196,0 c -0.94517,0 -1.70703,-1.03102 -1.70703,-1.97618 l 0,-2.25781 c 0,-0.94517 0.76186,-1.97423 1.70703,-1.97423 l 7.85024,0 c -1.39389,-8.86649 -9.02853,-15.13374 -18.00391,-15.14491 z"
       id="path4249"
       inkscape:connector-curvature="0" />
    <path
       inkscape:connector-curvature="0"
       id="path4251"
       d="m 489.15203,482.1112 c -8.97538,0.0113 -16.61,6.27842 -18.0039,15.14491 l 7.85023,0 c 0.94516,0 1.70508,1.02906 1.70508,1.97423 l 0,2.25781 c 0,0.94516 -0.75992,1.97618 -1.70508,1.97618 l -7.86195,0 c 1.39545,8.8701 9.03643,15.1377 18.01562,15.14296 8.97919,-0.005 16.62018,-6.27286 18.01563,-15.14296 l -7.86196,0 c -0.94517,0 -1.70703,-1.03102 -1.70703,-1.97618 l 0,-2.25781 c 0,-0.94517 0.76186,-1.97423 1.70703,-1.97423 l 7.85024,0 c -1.39389,-8.86649 -9.02853,-15.13374 -18.00391,-15.14491 z"
       style="fill:none;stroke:#555555;stroke-width:0.17716536;stroke-opacity:1"
       sodipodi:nodetypes="ccsssscccsssscc" />
    <path
       inkscape:connector-curvature="0"
       style="fill:none;stroke:#555555;stroke-width:0.17716534;stroke-opacity:1"
       d="m 779.45595,614.2342 c -8.97538,0.0113 -16.61001,6.27805 -18.00391,15.14454 l 7.8496,0 c 0.94516,0 1.70508,1.02943 1.70508,1.9746 l 0,2.25782 c 0,0.94516 -0.75992,1.97656 -1.70508,1.97656 l -7.86131,0 c 1.39544,8.8701 9.03643,15.13732 18.01562,15.14258 8.97919,-0.005 16.62018,-6.27248 18.01563,-15.14258 l -7.86133,0 c -0.94517,0 -1.70703,-1.0314 -1.70703,-1.97656 l 0,-2.25782 c 0,-0.94517 0.76185,-1.9746 1.70703,-1.9746 l 7.8496,0 c -1.39388,-8.86649 -9.02853,-15.13337 -18.0039,-15.14454 z"
       id="path62503" />
    <path
       style="color:#000000;font-style:normal;font-variant:normal;font-weight:normal;font-stretch:normal;font-size:medium;line-height:normal;font-family:sans-serif;text-indent:0;text-align:start;text-decoration:none;text-decoration-line:none;text-decoration-style:solid;text-decoration-color:#000000;letter-spacing:normal;word-spacing:normal;text-transform:none;direction:ltr;block-progression:tb;writing-mode:lr-tb;baseline-shift:baseline;text-anchor:start;white-space:normal;clip-rule:nonzero;display:inline;overflow:visible;visibility:visible;opacity:0.54000005;isolation:auto;mix-blend-mode:normal;color-interpolation:sRGB;color-interpolation-filters:linearRGB;solid-color:#000000;solid-opacity:1;fill:#800080;fill-opacity:1;fill-rule:nonzero;stroke:none;stroke-width:0.60000002;stroke-linecap:butt;stroke-linejoin:miter;stroke-miterlimit:4;stroke-dasharray:none;stroke-dashoffset:0;stroke-opacity:1;color-rendering:auto;image-rendering:auto;shape-rendering:auto;text-rendering:auto;enable-background:accumulate"
       d="m 771.3278,629.33506 c -0.23099,-0.28151 -1.16921,-1.01731 -2.02771,-1.01731 l -6.57972,0 c 0.22755,-0.95604 0.53425,-1.87627 0.91242,-2.75472 0.37816,-0.87845 0.8278,-1.71512 1.34125,-2.50406 0.51345,-0.78893 1.72412,-2.21765 1.72412,-2.21765 0,0 2.0617,-0.8709 3.18945,-0.7525 1.12775,0.11838 2.01388,1.505 3.18945,1.505 1.17556,0 2.01387,-1.50501 3.18944,-1.50502 1.17557,0 2.01388,1.50501 3.18945,1.50501 1.17556,0 2.01387,-1.50501 3.18944,-1.50501 1.17557,0 2.01388,1.505 3.18945,1.505 1.17556,0 2.06169,-1.38662 3.18944,-1.50501 1.12776,-0.11838 3.18945,0.7525 3.18945,0.7525 0,0 1.21067,1.42872 1.72413,2.21766 0.51345,0.78895 0.96309,1.62562 1.34125,2.50407 0.37817,0.87846 0.68487,1.79869 0.91242,2.75473 l -6.57971,0 c -0.85851,0 -1.80336,0.73591 -2.03464,1.01731 -0.23127,0.28141 -16.01837,0.28152 -16.24938,0 z m 16.24938,6.29076 c 0.23117,0.28162 1.17539,1.02424 2.03464,1.02424 l 6.59355,0 c -0.22776,0.95644 -0.53477,1.87706 -0.91334,2.75587 -0.37857,0.87881 -0.8287,1.71583 -1.3427,2.50506 -0.514,0.78923 -1.72593,2.21841 -1.72593,2.21841 0,0 -2.06322,0.87105 -3.19166,0.75272 -1.12845,-0.11835 -2.01543,-1.50485 -3.19166,-1.50479 -1.17624,6e-5 -2.01543,1.50516 -3.19166,1.50522 -1.17624,7e-5 -2.01543,-1.50485 -3.19167,-1.50479 -1.17623,7e-5 -2.01542,1.50516 -3.19165,1.50523 -1.17624,6e-5 -2.01543,-1.50486 -3.19167,-1.5048 -1.17623,7e-5 -2.06321,1.38676 -3.19165,1.50523 -1.12846,0.11849 -3.19167,-0.75229 -3.19167,-0.75229 0,0 -1.21245,-1.4294 -1.72667,-2.21881 -0.51422,-0.7894 -0.96453,-1.6266 -1.34325,-2.50564 -0.37871,-0.87904 -0.68583,-1.79991 -0.91366,-2.75663 l 6.59356,0 c 0.85924,0 1.79683,-0.7425 2.02771,-1.02424 0.23088,-0.28173 16.01823,-0.28162 16.24938,0 z"
       id="path62521"
       inkscape:connector-curvature="0"
       sodipodi:nodetypes="zscssczzzzzzzcsscszzcscssczzzzzzzcsscszzc" />
    <path
       sodipodi:nodetypes="zscssczzzzzzzcsscszzcscssczzzzzzzcsscszzc"
       inkscape:connector-curvature="0"
       id="path62529"
       d="m 771.3278,629.33506 c -0.23099,-0.28151 -1.16921,-1.01731 -2.02771,-1.01731 l -6.57972,0 c 0.22755,-0.95604 0.53425,-1.87627 0.91242,-2.75472 0.37816,-0.87845 0.8278,-1.71512 1.34125,-2.50406 0.51345,-0.78893 1.72412,-1.08889 1.72412,-1.08889 0,0 2.0617,-0.8709 3.18945,-0.75251 1.12775,0.11838 2.01388,1.505 3.18945,1.505 1.17556,0 2.01387,-1.50501 3.18944,-1.50501 1.17557,0 2.01388,1.50501 3.18945,1.50501 1.17556,-10e-6 2.01387,-1.50502 3.18944,-1.50502 1.17557,0 2.01388,1.50501 3.18945,1.50501 1.17556,0 2.06169,-1.38662 3.18944,-1.50501 1.12776,-0.11839 3.18945,0.7525 3.18945,0.7525 0,0 1.21067,0.29997 1.72413,1.0889 0.51345,0.78895 0.96309,1.62562 1.34125,2.50407 0.37817,0.87846 0.68487,1.79869 0.91242,2.75473 l -6.57971,0 c -0.85851,0 -1.80336,0.73591 -2.03464,1.01731 -0.23127,0.28141 -16.01837,0.28152 -16.24938,0 z m 16.24938,6.29076 c 0.23117,0.28162 1.17539,1.02424 2.03464,1.02424 l 6.59355,0 c -0.22776,0.95644 -0.53477,1.87706 -0.91334,2.75587 -0.37857,0.87881 -0.8287,1.71583 -1.3427,2.50506 -0.514,0.78923 -1.72593,1.08965 -1.72593,1.08965 0,0 -2.06322,0.87105 -3.19166,0.75272 -1.12845,-0.11834 -2.01543,-1.50485 -3.19166,-1.50479 -1.17624,7e-5 -2.01543,1.50516 -3.19166,1.50523 -1.17624,6e-5 -2.01543,-1.50486 -3.19167,-1.50479 -1.17623,6e-5 -2.01542,1.50515 -3.19165,1.50522 -1.17624,6e-5 -2.01543,-1.50486 -3.19167,-1.50479 -1.17623,7e-5 -2.06321,1.38676 -3.19165,1.50522 -1.12846,0.11849 -3.19167,-0.75228 -3.19167,-0.75228 0,0 -1.21245,-0.30065 -1.72667,-1.09006 -0.51422,-0.7894 -0.96453,-1.6266 -1.34325,-2.50564 -0.37871,-0.87904 -0.68583,-1.79991 -0.91366,-2.75663 l 6.59356,0 c 0.85924,0 1.79683,-0.7425 2.02771,-1.02424 0.23088,-0.28173 16.01823,-0.28162 16.24938,0 z"
       style="color:#000000;font-style:normal;font-variant:normal;font-weight:normal;font-stretch:normal;font-size:medium;line-height:normal;font-family:sans-serif;text-indent:0;text-align:start;text-decoration:none;text-decoration-line:none;text-decoration-style:solid;text-decoration-color:#000000;letter-spacing:normal;word-spacing:normal;text-transform:none;direction:ltr;block-progression:tb;writing-mode:lr-tb;baseline-shift:baseline;text-anchor:start;white-space:normal;clip-rule:nonzero;display:inline;overflow:visible;visibility:visible;opacity:0.54000005;isolation:auto;mix-blend-mode:normal;color-interpolation:sRGB;color-interpolation-filters:linearRGB;solid-color:#000000;solid-opacity:1;fill:#800080;fill-opacity:1;fill-rule:nonzero;stroke:none;stroke-width:0.60000002;stroke-linecap:butt;stroke-linejoin:miter;stroke-miterlimit:4;stroke-dasharray:none;stroke-dashoffset:0;stroke-opacity:1;color-rendering:auto;image-rendering:auto;shape-rendering:auto;text-rendering:auto;enable-background:accumulate" />
    <path
       style="color:#000000;font-style:normal;font-variant:normal;font-weight:normal;font-stretch:normal;font-size:medium;line-height:normal;font-family:sans-serif;text-indent:0;text-align:start;text-decoration:none;text-decoration-line:none;text-decoration-style:solid;text-decoration-color:#000000;letter-spacing:normal;word-spacing:normal;text-transform:none;direction:ltr;block-progression:tb;writing-mode:lr-tb;baseline-shift:baseline;text-anchor:start;white-space:normal;clip-rule:nonzero;display:inline;overflow:visible;visibility:visible;opacity:0.54000005;isolation:auto;mix-blend-mode:normal;color-interpolation:sRGB;color-interpolation-filters:linearRGB;solid-color:#000000;solid-opacity:1;fill:#800080;fill-opacity:1;fill-rule:nonzero;stroke:none;stroke-width:0.60000002;stroke-linecap:butt;stroke-linejoin:miter;stroke-miterlimit:4;stroke-dasharray:none;stroke-dashoffset:0;stroke-opacity:1;color-rendering:auto;image-rendering:auto;shape-rendering:auto;text-rendering:auto;enable-background:accumulate"
       d="m 696.30857,558.76806 c -8.02649,0.0131 -14.91196,5.36922 -16.73243,13.01757 l 5.17579,0 c 1.75495,-4.87654 6.37783,-8.13028 11.56054,-8.13672 5.18343,0.006 9.8073,3.25951 11.5625,8.13672 l 5.17188,0 c -1.82046,-7.64836 -8.70597,-13.00446 -16.73243,-13.01757 l -0.006,0 z m 0.004,6.68749 c -4.21197,-9e-5 -8.01608,2.51753 -9.66211,6.39454 0.63386,0.13496 1.16425,0.5035 1.5332,0.95312 0.46199,0.56304 0.74024,1.26402 0.74024,2.02149 l 0,2.25586 c 0,0.75746 -0.27847,1.4502 -0.74024,2.01367 -0.36653,0.44726 -0.8925,0.81826 -1.52149,0.95703 1.64317,3.87462 5.44175,6.39317 9.6504,6.39844 4.21243,-2.4e-4 8.01667,-2.51871 9.6621,-6.39649 -0.63709,-0.13613 -1.17125,-0.50848 -1.54101,-0.95898 -0.46231,-0.56325 -0.74023,-1.25548 -0.74023,-2.01367 l 0,-2.25586 c 0,-0.7582 0.27768,-1.45867 0.74023,-2.02149 0.36746,-0.44711 0.89819,-0.81433 1.5293,-0.95117 -1.64377,-3.87386 -5.44223,-6.39155 -9.6504,-6.39649 z m -16.75,14.66211 c 1.82264,7.6538 8.71886,13.01298 16.75195,13.01758 8.02999,-0.007 14.92397,-5.366 16.74609,-13.01758 l -5.18945,0 c -1.75472,4.87587 -6.3766,8.12947 -11.5586,8.13672 -5.18414,-0.005 -9.809,-3.25883 -11.56445,-8.13672 z"
       id="path62527"
       inkscape:connector-curvature="0"
       sodipodi:nodetypes="ccccccccccccssccccssssccccccccc" />
    <path
       style="opacity:0.54000005;fill:#ff0000;fill-opacity:1;stroke:none;stroke-width:0.60000002;stroke-linecap:round;stroke-linejoin:round;stroke-miterlimit:4;stroke-dasharray:none;stroke-dashoffset:0;stroke-opacity:1"
       d="m 786.80853,575.9522 a 10.496599,10.496599 0 0 1 -10.4966,10.4966 10.496599,10.496599 0 0 1 -10.4966,-10.4966 10.496599,10.496599 0 0 1 10.4966,-10.4966 10.496599,10.496599 0 0 1 10.4966,10.4966 z"
       id="path62531"
       inkscape:connector-curvature="0" />
    <path
       inkscape:connector-curvature="0"
       id="path62534"
       d="m 788.61454,575.9522 a 12.302608,12.302608 0 0 1 -12.30261,12.30261 12.302608,12.302608 0 0 1 -12.30261,-12.30261 12.302608,12.302608 0 0 1 12.30261,-12.3026 12.302608,12.302608 0 0 1 12.30261,12.3026 z"
       style="opacity:0.54000005;fill:#ff0000;fill-opacity:1;stroke:none;stroke-width:0.60000002;stroke-linecap:round;stroke-linejoin:round;stroke-miterlimit:4;stroke-dasharray:none;stroke-dashoffset:0;stroke-opacity:1" />
    <path
       style="color:#000000;font-style:normal;font-variant:normal;font-weight:normal;font-stretch:normal;font-size:medium;line-height:normal;font-family:sans-serif;text-indent:0;text-align:start;text-decoration:none;text-decoration-line:none;text-decoration-style:solid;text-decoration-color:#000000;letter-spacing:normal;word-spacing:normal;text-transform:none;direction:ltr;block-progression:tb;writing-mode:lr-tb;baseline-shift:baseline;text-anchor:start;white-space:normal;clip-rule:nonzero;display:inline;overflow:visible;visibility:visible;opacity:0.54000005;isolation:auto;mix-blend-mode:normal;color-interpolation:sRGB;color-interpolation-filters:linearRGB;solid-color:#000000;solid-opacity:1;fill:#800080;fill-opacity:1;fill-rule:nonzero;stroke:none;stroke-width:0.60000002;stroke-linecap:butt;stroke-linejoin:miter;stroke-miterlimit:4;stroke-dasharray:none;stroke-dashoffset:0;stroke-opacity:1;color-rendering:auto;image-rendering:auto;shape-rendering:auto;text-rendering:auto;enable-background:accumulate"
       d="m 776.3083,558.76855 0.007,0 c 8.02645,0.0131 14.91166,5.36913 16.73211,13.0175 l -6.57971,0 c -0.85851,0 -1.57208,0.4545 -2.03464,1.01731 -0.46255,0.56282 -0.74049,1.2626 -0.74049,2.0208 l 0,2.25609 c 0,0.75819 0.27818,1.45062 0.74049,2.01387 0.4623,0.56324 1.17539,1.02424 2.03464,1.02424 l 6.59355,0 c -1.82211,7.65157 -8.71596,13.00997 -16.74596,13.0175 -8.03309,-0.005 -14.93024,-5.36371 -16.75289,-13.0175 l 6.59356,0 c 0.85925,0 1.56596,-0.46077 2.02772,-1.02424 0.46175,-0.56347 0.74049,-1.25641 0.74049,-2.01387 l 0,-2.25609 c 0,-0.75747 -0.2785,-1.45776 -0.74049,-2.0208 -0.46201,-0.56303 -1.16921,-1.01731 -2.02772,-1.01731 l -6.57972,0 c 1.82047,-7.64836 8.70563,-13.00428 16.73212,-13.0175 z"
       id="path62544"
       inkscape:connector-curvature="0"
       sodipodi:nodetypes="cccsssssscccsssscsccc" />
    <path
       inkscape:connector-curvature="0"
       id="path62549"
       d="m 736.31247,565.45555 c -4.21196,-9e-5 -8.01608,2.51753 -9.66211,6.39454 0.63386,0.13496 1.16426,0.5035 1.5332,0.95312 0.46199,0.56304 0.74024,1.26402 0.74024,2.02149 l 0,2.25586 c 0,0.75746 -0.27847,1.4502 -0.74024,2.01367 -0.36652,0.44726 -0.8925,0.81826 -1.52148,0.95703 1.64317,3.87462 5.44175,6.39317 9.65039,6.39844 4.21243,-2.4e-4 8.01668,-2.51871 9.66211,-6.39649 -0.63709,-0.13613 -1.17126,-0.50848 -1.54102,-0.95898 -0.46231,-0.56325 -0.74023,-1.25548 -0.74023,-2.01367 l 0,-2.25586 c 0,-0.7582 0.27769,-1.45867 0.74023,-2.02149 0.36746,-0.44711 0.89819,-0.81434 1.5293,-0.95117 -1.64377,-3.87386 -5.44222,-6.39155 -9.65039,-6.39649 z"
       style="color:#000000;font-style:normal;font-variant:normal;font-weight:normal;font-stretch:normal;font-size:medium;line-height:normal;font-family:sans-serif;text-indent:0;text-align:start;text-decoration:none;text-decoration-line:none;text-decoration-style:solid;text-decoration-color:#000000;letter-spacing:normal;word-spacing:normal;text-transform:none;direction:ltr;block-progression:tb;writing-mode:lr-tb;baseline-shift:baseline;text-anchor:start;white-space:normal;clip-rule:nonzero;display:inline;overflow:visible;visibility:visible;opacity:0.54000005;isolation:auto;mix-blend-mode:normal;color-interpolation:sRGB;color-interpolation-filters:linearRGB;solid-color:#000000;solid-opacity:1;fill:#800080;fill-opacity:1;fill-rule:nonzero;stroke:none;stroke-width:0.60000002;stroke-linecap:butt;stroke-linejoin:miter;stroke-miterlimit:4;stroke-dasharray:none;stroke-dashoffset:0;stroke-opacity:1;color-rendering:auto;image-rendering:auto;shape-rendering:auto;text-rendering:auto;enable-background:accumulate"
       sodipodi:nodetypes="cccssccccsssscc" />
    <path
       inkscape:connector-curvature="0"
       style="fill:none;stroke:#555555;stroke-width:0.17716534;stroke-opacity:1"
       d="m 847.45907,610.38317 c -12.32043,0.006 -22.66745,8.89155 -24.02734,21.13672 l 11.96289,0 c 1.00276,0 1.81054,1.18865 1.81054,2.1914 l 0,1.71876 c 0,1.00276 -0.80778,2.18945 -1.81054,2.18945 l -11.94727,0 c 1.35831,12.23962 11.69697,21.12415 24.01172,21.13867 12.31474,-0.0142 22.65146,-8.89905 24.00977,-21.13867 l -11.94727,0 c -1.00275,0 -1.80859,-1.18669 -1.80859,-2.18945 l 0,-1.71876 c 0,-1.00275 0.80584,-2.1914 1.80859,-2.1914 l 11.96484,0 c -1.35987,-12.24517 -11.7069,-21.13073 -24.02734,-21.13672 z"
       id="path62509" />
    <path
       style="color:#000000;font-style:normal;font-variant:normal;font-weight:normal;font-stretch:normal;font-size:medium;line-height:normal;font-family:sans-serif;text-indent:0;text-align:start;text-decoration:none;text-decoration-line:none;text-decoration-style:solid;text-decoration-color:#000000;letter-spacing:normal;word-spacing:normal;text-transform:none;direction:ltr;block-progression:tb;writing-mode:lr-tb;baseline-shift:baseline;text-anchor:start;white-space:normal;clip-rule:nonzero;display:inline;overflow:visible;visibility:visible;opacity:0.54000005;isolation:auto;mix-blend-mode:normal;color-interpolation:sRGB;color-interpolation-filters:linearRGB;solid-color:#000000;solid-opacity:1;fill:#800080;fill-opacity:1;fill-rule:nonzero;stroke:none;stroke-width:0.60000002;stroke-linecap:butt;stroke-linejoin:miter;stroke-miterlimit:4;stroke-dasharray:none;stroke-dashoffset:0;stroke-opacity:1;color-rendering:auto;image-rendering:auto;shape-rendering:auto;text-rendering:auto;enable-background:accumulate"
       d="m 857.39794,697.55051 c 0.23487,0.3033 1.2039,1.13496 2.1246,1.13496 l 10.74588,0 c -0.2307,1.38069 -0.5824,2.71304 -1.04347,3.9876 -0.46107,1.27455 -1.0315,2.49131 -1.69965,3.6408 -0.66815,1.1495 -2.28597,3.23723 -2.28597,3.23723 0,0 -2.75756,-0.776 -4.44481,-0.53832 -1.68725,0.23767 -2.61335,2.15321 -4.44481,2.1532 -1.83146,0 -2.61335,-2.15324 -4.44481,-2.15324 -1.83146,-10e-6 -2.61334,2.15321 -4.44481,2.1532 -1.83146,0 -2.61334,-2.15324 -4.4448,-2.15324 -1.83146,-10e-6 -2.61335,2.15321 -4.44481,2.1532 -1.83146,0 -2.75756,-1.91556 -4.44481,-2.15324 -1.68725,-0.23769 -4.44481,0.53828 -4.44481,0.53828 0,0 -1.61781,-2.0877 -2.28596,-3.23718 -0.66815,-1.14947 -1.23859,-2.36621 -1.69966,-3.64074 -0.46108,-1.27454 -0.8128,-2.60688 -1.04351,-3.98755 l 10.74588,0 c 0.9207,0 1.88253,-0.83175 2.11768,-1.13496 0.23516,-0.30321 19.64777,-0.30331 19.88265,0 z m -19.88265,-5.95857 c -0.23504,-0.30343 -1.19629,-1.13497 -2.11768,-1.13497 l -10.75972,0 c 0.2309,-1.38135 0.58289,-2.71431 1.0443,-3.98941 0.46142,-1.27511 1.03226,-2.49235 1.70088,-3.64226 0.66861,-1.14991 2.28751,-2.69994 2.28751,-2.69994 0,0 2.89858,0.79656 4.44737,0.53832 1.54879,-0.25825 2.80031,-2.15322 4.44738,-2.15322 1.64707,1e-5 2.8003,2.15324 4.44737,2.15325 1.64707,0 2.8003,-2.15322 4.44737,-2.15322 1.64707,10e-6 2.80031,2.15325 4.44738,2.15326 1.64707,0 2.8003,-2.15323 4.44737,-2.15323 1.64707,10e-6 2.87023,1.98433 4.44738,2.15325 1.57715,0.16891 4.44737,-1.0766 4.44737,-1.0766 0,0 1.6189,2.08829 2.28752,3.23819 0.66861,1.14989 1.23946,2.36712 1.70087,3.64221 0.46142,1.2751 0.8134,2.60805 1.0443,3.9894 l -10.75972,0 c -0.92139,0 -1.88984,0.83145 -2.1246,1.13497 -0.23477,0.30352 -19.6476,0.30342 -19.88265,0 z"
       id="path62519"
       inkscape:connector-curvature="0"
       sodipodi:nodetypes="zscssczzzzzzzcsscszzzscssczzzzzzzcsscszz" />
    <path
       inkscape:connector-curvature="0"
       id="path4375"
       d="m 212.73233,487.46014 c -6.33857,6.35454 -7.30554,16.18456 -2.02162,23.43975 l 5.55095,-5.55095 c 0.66833,-0.66833 1.93333,-0.47802 2.60167,0.19032 l 1.59651,1.59651 c 0.66833,0.66833 0.86003,1.93472 0.1917,2.60304 l -5.55924,5.55924 c 7.25884,5.28538 17.09369,4.31425 23.44666,-2.03128 6.34571,-6.35278 7.31666,-16.18782 2.03128,-23.44666 l -5.55924,5.55925 c -0.66834,0.66833 -1.9361,0.47801 -2.60443,-0.19032 l -1.59651,-1.59651 c -0.66833,-0.66834 -0.85727,-1.93471 -0.18894,-2.60305 l 5.55096,-5.55096 c -7.25518,-5.28392 -17.0853,-4.31703 -23.43975,2.02162 z"
       style="fill:none;stroke:#555555;stroke-width:0.17716536;stroke-opacity:1"
       sodipodi:nodetypes="ccsssscccsssscc" />
    <path
       sodipodi:nodetypes="ccsssscccsssscc"
       inkscape:connector-curvature="0"
       id="path4377"
       d="m 525.9835,522.9459 c 8.7161,8.70762 22.31552,9.74113 31.93575,2.04407 l -8.45978,-8.45977 c -0.70906,-0.70906 -0.43861,-2.12043 0.27045,-2.82948 l 1.2145,-1.2145 c 0.70905,-0.70906 2.11912,-0.97821 2.82818,-0.26915 l 8.44808,8.44808 c 7.69424,-9.61519 6.6665,-23.20724 -2.03108,-31.92535 -8.71794,-8.69773 -22.31016,-9.72532 -31.92534,-2.03107 l 8.44808,8.44808 c 0.70905,0.70905 0.4399,2.11912 -0.26916,2.82817 l -1.2145,1.2145 c -0.70905,0.70906 -2.12042,0.97951 -2.82947,0.27046 l -8.45978,-8.45979 c -7.69706,9.62023 -6.66356,23.21965 2.04407,31.93575 z"
       style="fill:none;stroke:#555555;stroke-width:0.16680637;stroke-opacity:1" />
    <path
       sodipodi:nodetypes="ccsssssscccsssssscc"
       inkscape:connector-curvature="0"
       id="path4406"
       d="m 946.33987,661.53865 c 11.37835,0.006 20.97498,7.95991 22.82218,19.01067 l -10.75972,0 c -0.92139,0 -1.65507,0.52793 -2.1246,1.13497 -0.46953,0.60703 -0.74741,1.33155 -0.74741,2.11768 l 0,1.72321 c 0,0.78613 0.27765,1.51107 0.74741,2.11768 0.46975,0.60661 1.2039,1.13496 2.1246,1.13496 l 10.74588,0 c -1.84559,11.04551 -11.43562,18.99759 -22.80834,19.01068 -11.37278,-0.0135 -20.96264,-7.96529 -22.80835,-19.01068 l 10.74588,0 c 0.9207,0 1.64737,-0.52854 2.11768,-1.13496 0.4703,-0.60642 0.75433,-1.33087 0.75433,-2.11768 l 0,-1.72321 c 0,-0.78682 -0.28424,-1.51084 -0.75433,-2.11768 -0.47009,-0.60685 -1.19629,-1.13497 -2.11768,-1.13497 l -10.75972,0 c 1.84721,-11.05076 11.44383,-19.00511 22.82219,-19.01067 z"
       style="color:#000000;font-style:normal;font-variant:normal;font-weight:normal;font-stretch:normal;font-size:medium;line-height:normal;font-family:sans-serif;text-indent:0;text-align:start;text-decoration:none;text-decoration-line:none;text-decoration-style:solid;text-decoration-color:#000000;letter-spacing:normal;word-spacing:normal;text-transform:none;direction:ltr;block-progression:tb;writing-mode:lr-tb;baseline-shift:baseline;text-anchor:start;white-space:normal;clip-rule:nonzero;display:inline;overflow:visible;visibility:visible;opacity:0.54000005;isolation:auto;mix-blend-mode:normal;color-interpolation:sRGB;color-interpolation-filters:linearRGB;solid-color:#000000;solid-opacity:1;fill:#800080;fill-opacity:1;fill-rule:nonzero;stroke:none;stroke-width:0.60000002;stroke-linecap:butt;stroke-linejoin:miter;stroke-miterlimit:4;stroke-dasharray:none;stroke-dashoffset:0;stroke-opacity:1;color-rendering:auto;image-rendering:auto;shape-rendering:auto;text-rendering:auto;enable-background:accumulate" />
    <path
       sodipodi:nodetypes="zscssczzzzzzzcsscszzzscssczzzzzzzcsscszz"
       inkscape:connector-curvature="0"
       id="path4408"
       d="m 857.39794,697.55051 c 0.23487,0.3033 1.2039,1.13496 2.1246,1.13496 l 10.74588,0 c -0.2307,1.38069 -0.5824,2.71304 -1.04347,3.9876 -0.46107,1.27455 -1.0315,1.953 -1.69965,3.10249 -0.66815,1.1495 -2.28597,2.69892 -2.28597,2.69892 0,0 -2.75756,-0.776 -4.44481,-0.53832 -1.68725,0.23767 -2.61335,2.15321 -4.44481,2.1532 -1.83146,0 -2.61335,-2.15324 -4.44481,-2.15324 -1.83146,-10e-6 -2.61334,2.15321 -4.44481,2.1532 -1.83146,0 -2.61334,-2.15324 -4.4448,-2.15324 -1.83146,-10e-6 -2.61335,2.15321 -4.44481,2.1532 -1.83146,0 -2.75756,-1.91556 -4.44481,-2.15324 -1.68725,-0.23769 -4.44481,0.53828 -4.44481,0.53828 0,0 -1.61781,-1.54939 -2.28596,-2.69887 -0.66815,-1.14947 -1.23859,-1.8279 -1.69966,-3.10243 -0.46108,-1.27454 -0.8128,-2.60688 -1.04351,-3.98755 l 10.74588,0 c 0.9207,0 1.88253,-0.83175 2.11768,-1.13496 0.23516,-0.30321 19.64777,-0.30331 19.88265,0 z m -19.88265,-5.95857 c -0.23504,-0.30343 -1.19629,-1.13497 -2.11768,-1.13497 l -10.75972,0 c 0.2309,-1.38135 0.58289,-2.71431 1.0443,-3.98941 0.46142,-1.27511 1.03226,-1.95404 1.70088,-3.10395 0.66861,-1.14991 2.28751,-2.16163 2.28751,-2.16163 0,0 2.89858,0.79656 4.44737,0.53832 1.54879,-0.25825 2.80031,-2.15322 4.44738,-2.15322 1.64707,10e-6 2.8003,2.15324 4.44737,2.15325 1.64707,0 2.8003,-2.15322 4.44737,-2.15322 1.64707,10e-6 2.80031,2.15325 4.44738,2.15326 1.64707,0 2.8003,-2.15323 4.44737,-2.15323 1.64707,10e-6 2.87023,1.98433 4.44738,2.15325 1.57715,0.16891 4.44737,-1.0766 4.44737,-1.0766 0,0 1.6189,1.54998 2.28752,2.69988 0.66861,1.14989 1.23946,1.82881 1.70087,3.1039 0.46142,1.2751 0.8134,2.60805 1.0443,3.9894 l -10.75972,0 c -0.92139,0 -1.88984,0.83145 -2.1246,1.13497 -0.23477,0.30352 -19.6476,0.30342 -19.88265,0 z"
       style="color:#000000;font-style:normal;font-variant:normal;font-weight:normal;font-stretch:normal;font-size:medium;line-height:normal;font-family:sans-serif;text-indent:0;text-align:start;text-decoration:none;text-decoration-line:none;text-decoration-style:solid;text-decoration-color:#000000;letter-spacing:normal;word-spacing:normal;text-transform:none;direction:ltr;block-progression:tb;writing-mode:lr-tb;baseline-shift:baseline;text-anchor:start;white-space:normal;clip-rule:nonzero;display:inline;overflow:visible;visibility:visible;opacity:0.54000005;isolation:auto;mix-blend-mode:normal;color-interpolation:sRGB;color-interpolation-filters:linearRGB;solid-color:#000000;solid-opacity:1;fill:#800080;fill-opacity:1;fill-rule:nonzero;stroke:none;stroke-width:0.60000002;stroke-linecap:butt;stroke-linejoin:miter;stroke-miterlimit:4;stroke-dasharray:none;stroke-dashoffset:0;stroke-opacity:1;color-rendering:auto;image-rendering:auto;shape-rendering:auto;text-rendering:auto;enable-background:accumulate" />
    <path
       style="color:#000000;font-style:normal;font-variant:normal;font-weight:normal;font-stretch:normal;font-size:medium;line-height:normal;font-family:sans-serif;text-indent:0;text-align:start;text-decoration:none;text-decoration-line:none;text-decoration-style:solid;text-decoration-color:#000000;letter-spacing:normal;word-spacing:normal;text-transform:none;direction:ltr;block-progression:tb;writing-mode:lr-tb;baseline-shift:baseline;text-anchor:start;white-space:normal;clip-rule:nonzero;display:inline;overflow:visible;visibility:visible;opacity:0.54000005;isolation:auto;mix-blend-mode:normal;color-interpolation:sRGB;color-interpolation-filters:linearRGB;solid-color:#000000;solid-opacity:1;fill:#800080;fill-opacity:1;fill-rule:nonzero;stroke:none;stroke-width:0.60000002;stroke-linecap:butt;stroke-linejoin:miter;stroke-miterlimit:4;stroke-dasharray:none;stroke-dashoffset:0;stroke-opacity:1;color-rendering:auto;image-rendering:auto;shape-rendering:auto;text-rendering:auto;enable-background:accumulate"
       d="m 947.48047,621.2793 c -5.7622,0.005 -10.87163,3.70461 -12.67383,9.17773 l 0.5918,0 c 0.92139,0 1.64709,0.52792 2.11718,1.13477 0.4701,0.60684 0.75391,1.33036 0.75391,2.11718 l 0,1.72461 c 0,0.78681 -0.28361,1.51077 -0.75391,2.11719 -0.47031,0.60642 -1.19648,1.13477 -2.11718,1.13477 l -0.62696,0 c 1.76235,5.53486 6.90033,9.29576 12.70899,9.30273 5.81226,-0.003 10.9553,-3.76445 12.71875,-9.30273 l -0.67578,0 c -0.9207,0 -1.65525,-0.52816 -2.125,-1.13477 -0.46976,-0.60661 -0.74805,-1.33106 -0.74805,-2.11719 l 0,-1.72461 c 0,-0.78613 0.27852,-1.51015 0.74805,-2.11718 0.46953,-0.60704 1.20361,-1.13477 2.125,-1.13477 l 0.625,0 c -1.80152,-5.47107 -6.90793,-9.17058 -12.66797,-9.17773 z"
       id="path4410"
       inkscape:connector-curvature="0"
       sodipodi:nodetypes="ccscsssscccsssssscc" />
    <path
       style="color:#000000;font-style:normal;font-variant:normal;font-weight:normal;font-stretch:normal;font-size:medium;line-height:normal;font-family:sans-serif;text-indent:0;text-align:start;text-decoration:none;text-decoration-line:none;text-decoration-style:solid;text-decoration-color:#000000;letter-spacing:normal;word-spacing:normal;text-transform:none;direction:ltr;block-progression:tb;writing-mode:lr-tb;baseline-shift:baseline;text-anchor:start;white-space:normal;clip-rule:nonzero;display:inline;overflow:visible;visibility:visible;opacity:0.54000005;isolation:auto;mix-blend-mode:normal;color-interpolation:sRGB;color-interpolation-filters:linearRGB;solid-color:#000000;solid-opacity:1;fill:#800080;fill-opacity:1;fill-rule:nonzero;stroke:none;stroke-width:0.60000002;stroke-linecap:butt;stroke-linejoin:miter;stroke-miterlimit:4;stroke-dasharray:none;stroke-dashoffset:0;stroke-opacity:1;color-rendering:auto;image-rendering:auto;shape-rendering:auto;text-rendering:auto;enable-background:accumulate"
       d="m 907.46094,611.44727 c -11.37836,0.006 -20.97506,7.959 -22.82227,19.00976 l 7.73828,0 c 1.85433,-6.80498 8.03089,-11.52917 15.08399,-11.53711 7.05745,0.003 13.24022,4.72794 15.0957,11.53711 l 7.72656,0 c -1.8472,-11.05076 -11.44391,-19.00376 -22.82226,-19.00976 z m 0.0195,9.83203 c -5.7622,0.005 -10.87163,3.70461 -12.67383,9.17773 l 0.5918,0 c 0.92139,0 1.6471,0.52792 2.11718,1.13477 0.47011,0.60684 0.75391,1.33036 0.75391,2.11718 l 0,1.72461 c 0,0.78681 -0.28361,1.51077 -0.75391,2.11719 -0.47031,0.60642 -1.19648,1.13477 -2.11718,1.13477 l -0.62696,0 c 1.76235,5.53486 6.90033,9.29576 12.70899,9.30273 5.81226,-0.003 10.9553,-3.76445 12.71875,-9.30273 l -0.67578,0 c -0.9207,0 -1.65525,-0.52816 -2.125,-1.13477 -0.46976,-0.60661 -0.74805,-1.33106 -0.74805,-2.11719 l 0,-1.72461 c 0,-0.78613 0.27852,-1.51015 0.74805,-2.11718 0.46953,-0.60704 1.20361,-1.13477 2.125,-1.13477 l 0.625,0 c -1.80152,-5.47107 -6.90793,-9.17058 -12.66797,-9.17773 z m -22.82813,17.40625 c 1.84571,11.04539 11.43582,18.99626 22.8086,19.00976 11.37272,-0.0131 20.96105,-7.96425 22.80664,-19.00976 l -7.72266,0 c -1.85433,6.80498 -8.03088,11.52917 -15.08398,11.53711 -7.05818,-0.002 -13.24199,-4.72724 -15.09766,-11.53711 z"
       id="path4416"
       inkscape:connector-curvature="0"
       sodipodi:nodetypes="cccccccccscsssscccssssssccccccccc" />
    <path
       sodipodi:nodetypes="ccsssssscccsssssscc"
       inkscape:connector-curvature="0"
       id="path4423"
       d="m 847.46008,551.4463 c 11.37835,0.006 20.97498,7.95991 22.82218,19.01067 l -10.75972,0 c -0.92139,0 -1.65507,0.52793 -2.1246,1.13497 -0.46953,0.60703 -0.74741,1.33155 -0.74741,2.11768 l 0,1.72321 c 0,0.78613 0.27765,1.51107 0.74741,2.11768 0.46975,0.60661 1.2039,1.13496 2.1246,1.13496 l 10.74588,0 c -1.84559,11.04551 -11.43562,18.99759 -22.80834,19.01068 -11.37278,-0.0135 -20.96264,-7.96529 -22.80835,-19.01068 l 10.74588,0 c 0.9207,0 1.64737,-0.52854 2.11768,-1.13496 0.4703,-0.60642 0.75433,-1.33087 0.75433,-2.11768 l 0,-1.72321 c 0,-0.78682 -0.28424,-1.51084 -0.75433,-2.11768 -0.47009,-0.60685 -1.19629,-1.13497 -2.11768,-1.13497 l -10.75972,0 c 1.84721,-11.05076 11.44383,-19.00511 22.82219,-19.01067 z"
       style="color:#000000;font-style:normal;font-variant:normal;font-weight:normal;font-stretch:normal;font-size:medium;line-height:normal;font-family:sans-serif;text-indent:0;text-align:start;text-decoration:none;text-decoration-line:none;text-decoration-style:solid;text-decoration-color:#000000;letter-spacing:normal;word-spacing:normal;text-transform:none;direction:ltr;block-progression:tb;writing-mode:lr-tb;baseline-shift:baseline;text-anchor:start;white-space:normal;clip-rule:nonzero;display:inline;overflow:visible;visibility:visible;opacity:0.54000005;isolation:auto;mix-blend-mode:normal;color-interpolation:sRGB;color-interpolation-filters:linearRGB;solid-color:#000000;solid-opacity:1;fill:#800080;fill-opacity:1;fill-rule:nonzero;stroke:none;stroke-width:0.60000002;stroke-linecap:butt;stroke-linejoin:miter;stroke-miterlimit:4;stroke-dasharray:none;stroke-dashoffset:0;stroke-opacity:1;color-rendering:auto;image-rendering:auto;shape-rendering:auto;text-rendering:auto;enable-background:accumulate" />
    <path
       style="opacity:0.54000005;fill:#ff0000;fill-opacity:1;stroke:none;stroke-width:0.60000002;stroke-linecap:round;stroke-linejoin:round;stroke-miterlimit:4;stroke-dasharray:none;stroke-dashoffset:0;stroke-opacity:1"
       d="m 860.83558,574.63291 a 13.354517,13.354517 0 0 1 -13.35452,13.35452 13.354517,13.354517 0 0 1 -13.35452,-13.35452 13.354517,13.354517 0 0 1 13.35452,-13.35452 13.354517,13.354517 0 0 1 13.35452,13.35452 z"
       id="path4425"
       inkscape:connector-curvature="0" />
    <path
       inkscape:connector-curvature="0"
       id="path4427"
       d="m 863.11233,574.57122 a 15.65225,15.65225 0 0 1 -15.65226,15.65226 15.65225,15.65225 0 0 1 -15.65226,-15.65226 15.65225,15.65225 0 0 1 15.65226,-15.65225 15.65225,15.65225 0 0 1 15.65226,15.65225 z"
       style="opacity:0.54000005;fill:#ff0000;fill-opacity:1;stroke:none;stroke-width:0.60000002;stroke-linecap:round;stroke-linejoin:round;stroke-miterlimit:4;stroke-dasharray:none;stroke-dashoffset:0;stroke-opacity:1" />
    <path
       sodipodi:nodetypes="csccsccscccsssccssssccccc"
       inkscape:connector-curvature="0"
       id="path4447"
       d="m 911.79942,837.03671 c -1.5e-4,1.43581 1.08687,2.5918 2.10118,2.5918 l 2.63515,0 87.26175,0 2.5236,0 c 1.0144,0 2.2128,-1.15599 2.2127,-2.5918 l -0,-2.23027 c -10e-5,-1.43582 -1.2291,-2.33444 -2.2107,-2.58984 l -2.926,0 0,-21.53776 2.926,0 c 1.0347,0.0578 2.2127,-1.15598 2.2127,-2.5918 l 0,-2.36283 c 0,-1.43582 -1.1984,-2.5918 -2.2127,-2.5918 l -2.5237,0 -87.2617,0 -2.63515,0 c -1.01432,0 -2.09922,1.15598 -2.09922,2.5918 l 0,2.36283 c 0,1.43582 1.0849,2.5918 2.09922,2.5918 l 3.03749,0 0,21.40715 -3.03749,0 c -1.14941,0.0689 -2.126,1.26168 -2.09922,2.58984 z"
       style="fill:none;stroke:#555555;stroke-width:0.17716536;stroke-opacity:1" />
    <path
       style="color:#000000;font-style:normal;font-variant:normal;font-weight:normal;font-stretch:normal;font-size:medium;line-height:normal;font-family:sans-serif;text-indent:0;text-align:start;text-decoration:none;text-decoration-line:none;text-decoration-style:solid;text-decoration-color:#000000;letter-spacing:normal;word-spacing:normal;text-transform:none;direction:ltr;block-progression:tb;writing-mode:lr-tb;baseline-shift:baseline;text-anchor:start;white-space:normal;clip-rule:nonzero;display:inline;overflow:visible;visibility:visible;opacity:0.54500002;isolation:auto;mix-blend-mode:normal;color-interpolation:sRGB;color-interpolation-filters:linearRGB;solid-color:#000000;solid-opacity:1;fill:#da5555;fill-opacity:1;fill-rule:nonzero;stroke:none;stroke-width:2.12598419;stroke-linecap:round;stroke-linejoin:round;stroke-miterlimit:4;stroke-dasharray:none;stroke-dashoffset:0;stroke-opacity:1;color-rendering:auto;image-rendering:auto;shape-rendering:auto;text-rendering:auto;enable-background:accumulate"
       d="m 992.41365,804.19531 11.38515,0 2.5235,0 c 0.1033,0 0.4363,0.11921 0.7011,0.41016 0.2648,0.29095 0.4493,0.69697 0.4493,1.11914 l 0,2.36328 c 0,0.4272 -0.1888,0.85608 -0.4493,1.14844 -0.2604,0.29235 -0.5594,0.38539 -0.6406,0.38086 -0.02,-0.001 -0.04,-0.002 -0.06,-0.002 l -2.9258,0 c -0.5874,3.3e-4 -1.0633,0.47703 -1.0625,1.06446 l 0,21.53711 c 3e-4,0.58667 0.4758,1.06217 1.0625,1.0625 l 2.7148,0 c 0.2949,0.0883 0.6688,0.27255 0.9278,0.53515 0.2748,0.27871 0.4316,0.57756 0.4316,0.99219 l 0,2.23047 c 0,0.42214 -0.1844,0.8282 -0.4492,1.11914 -0.2648,0.29094 -0.5978,0.41016 -0.7012,0.41016 l -2.5234,0 -11.38516,0 c 0,0 -4.2836,-5.65194 -4.28349,-8.59276 1.1e-4,-2.94082 3.52281,-5.65195 3.52292,-8.59277 1.1e-4,-2.94082 -2.76104,-5.65194 -2.76093,-8.59276 1.1e-4,-2.94082 3.52291,-8.59277 3.52291,-8.59277 z m -64.49283,34.37106 -11.38516,0 -2.63477,0 c -0.2065,0 -1.03593,-0.62921 -1.03711,-1.52735 l 0.004,-2.36133 c -5.8e-4,-0.008 -0.001,-0.0156 -0.002,-0.0234 -0.016,-0.79258 0.64391,-1.47543 1.09766,-1.50586 l 2.97656,0 c 0.58743,7.5e-4 1.06413,-0.47507 1.06446,-1.0625 l 0,-21.40625 c 7.5e-4,-0.5882 -0.47626,-1.06521 -1.06446,-1.06446 l -3.03711,0 c -0.20668,0 -1.03515,-0.62698 -1.03515,-1.52734 l 0,-2.36328 c 0,-0.90036 0.82847,-1.5293 1.03515,-1.5293 l -5.5e-4,10e-6 2.63477,0 11.38515,0 c 0,0 4.2836,5.65195 4.28348,8.59277 -1.2e-4,2.94082 -3.90344,5.65194 -3.90356,8.59276 -1.2e-4,2.94082 3.14168,5.65195 3.14156,8.59277 -1.2e-4,2.94082 -3.52292,8.59276 -3.52292,8.59276 z"
       id="path4449"
       inkscape:connector-curvature="0"
       sodipodi:nodetypes="ccsssscccccccccsssscczzzcccsccccccccssscccczzzc" />
    <path
       sodipodi:nodetypes="ccsssscccccccccsssscczzzcccsccccccccssscccczzzc"
       inkscape:connector-curvature="0"
       id="path4453"
       d="m 993.04433,804.19531 10.75447,0 2.5235,0 c 0.1033,0 0.4363,0.11921 0.7011,0.41016 0.2648,0.29095 0.4493,0.69697 0.4493,1.11914 l 0,2.36328 c 0,0.4272 -0.1888,0.85608 -0.4493,1.14844 -0.2604,0.29235 -0.5594,0.38539 -0.6406,0.38086 -0.02,-0.001 -0.04,-0.002 -0.06,-0.002 l -2.9258,0 c -0.5874,3.3e-4 -1.0633,0.47703 -1.0625,1.06446 l 0,21.53711 c 3e-4,0.58667 0.4758,1.06217 1.0625,1.0625 l 2.7148,0 c 0.2949,0.0883 0.6688,0.27255 0.9278,0.53515 0.2748,0.27871 0.4316,0.57756 0.4316,0.99219 l 0,2.23047 c 0,0.42214 -0.1844,0.8282 -0.4492,1.11914 -0.2648,0.29094 -0.5978,0.41016 -0.7012,0.41016 l -2.5234,0 -10.75448,0 c 0,0 -1.99976,-5.65194 -1.99965,-8.59276 1.1e-4,-2.94082 2.00025,-5.65195 2.00036,-8.59277 1.1e-4,-2.94082 -1.99976,-5.65194 -1.99965,-8.59276 1.1e-4,-2.94082 2.00035,-8.59277 2.00035,-8.59277 z m -65.75419,34.37106 -10.75448,0 -2.63477,0 c -0.2065,0 -1.03593,-0.62921 -1.03711,-1.52735 l 0.004,-2.36133 c -5.8e-4,-0.008 -0.001,-0.0156 -0.002,-0.0234 -0.016,-0.79258 0.64391,-1.47543 1.09766,-1.50586 l 2.97656,0 c 0.58743,7.5e-4 1.06413,-0.47507 1.06446,-1.0625 l 0,-21.40625 c 7.5e-4,-0.5882 -0.47626,-1.06521 -1.06446,-1.06446 l -3.03711,0 c -0.20668,0 -1.03515,-0.62698 -1.03515,-1.52734 l 0,-2.36328 c 0,-0.90036 0.82847,-1.5293 1.03515,-1.5293 l -5.5e-4,10e-6 2.63477,0 10.75447,0 c 0,0 1.99976,5.65195 1.99964,8.59277 -1.2e-4,2.94082 -2.00024,5.65194 -2.00036,8.59276 -1.2e-4,2.94082 1.99976,5.65195 1.99964,8.59277 -1.2e-4,2.94082 -2.00036,8.59276 -2.00036,8.59276 z"
       style="color:#000000;font-style:normal;font-variant:normal;font-weight:normal;font-stretch:normal;font-size:medium;line-height:normal;font-family:sans-serif;text-indent:0;text-align:start;text-decoration:none;text-decoration-line:none;text-decoration-style:solid;text-decoration-color:#000000;letter-spacing:normal;word-spacing:normal;text-transform:none;direction:ltr;block-progression:tb;writing-mode:lr-tb;baseline-shift:baseline;text-anchor:start;white-space:normal;clip-rule:nonzero;display:inline;overflow:visible;visibility:visible;opacity:0.56699997;isolation:auto;mix-blend-mode:normal;color-interpolation:sRGB;color-interpolation-filters:linearRGB;solid-color:#000000;solid-opacity:1;fill:#555555;fill-opacity:1;fill-rule:nonzero;stroke:none;stroke-width:2.12598419;stroke-linecap:round;stroke-linejoin:round;stroke-miterlimit:4;stroke-dasharray:none;stroke-dashoffset:0;stroke-opacity:1;color-rendering:auto;image-rendering:auto;shape-rendering:auto;text-rendering:auto;enable-background:accumulate" />
    <path
       sodipodi:nodetypes="csccsccscccsssccssssccccc"
       inkscape:connector-curvature="0"
       id="path4485"
       d="m 210.19239,557.40334 c -1.43581,-1.5e-4 -2.5918,1.08687 -2.5918,2.10118 l 0,2.63515 0,143.96458 0,2.52367 c 0,1.01432 1.15599,2.21281 2.5918,2.21266 l 2.23027,-0.002 c 1.43582,-1.4e-4 2.58984,-1.19639 2.58984,-2.21071 l 0,-2.926 21.53776,0 0,2.926 c -0.0578,1.03468 1.15598,2.21267 2.5918,2.21267 l 2.36283,0 c 1.43582,0 2.5918,-1.19835 2.5918,-2.21267 l 0,-2.52367 0,-143.96458 0,-2.63515 c 0,-1.01432 -1.15598,-2.09922 -2.5918,-2.09922 l -2.36283,0 c -1.43582,0 -2.5918,1.0849 -2.5918,2.09922 l 0,3.03749 -21.40715,0 0,-3.03749 c -0.0689,-1.14941 -1.26168,-2.126 -2.58984,-2.09922 z"
       style="fill:none;stroke:#555555;stroke-width:0.17716536;stroke-opacity:1" />
    <path
       style="fill:none;stroke:#555555;stroke-width:0.17716536;stroke-opacity:1"
       d="m 257.33111,557.40334 c -1.43581,-1.5e-4 -2.5918,1.08687 -2.5918,2.10118 l 0,2.63515 0,143.96458 0,2.52367 c 0,1.01432 1.15599,2.21281 2.5918,2.21266 l 2.23027,-0.002 c 1.43582,-1.4e-4 2.58984,-1.19639 2.58984,-2.21071 l 0,-2.926 21.53776,0 0,2.926 c -0.0578,1.03468 1.15598,2.21267 2.5918,2.21267 l 2.36283,0 c 1.43582,0 2.5918,-1.19835 2.5918,-2.21267 l 0,-2.52367 0,-143.96458 0,-2.63515 c 0,-1.01432 -1.15598,-2.09922 -2.5918,-2.09922 l -2.36283,0 c -1.43582,0 -2.5918,1.0849 -2.5918,2.09922 l 0,3.03749 -21.40715,0 0,-3.03749 c -0.0689,-1.14941 -1.26168,-2.126 -2.58984,-2.09922 z"
       id="path4487"
       inkscape:connector-curvature="0"
       sodipodi:nodetypes="csccsccscccsssccssssccccc" />
    <path
       style="color:#000000;font-style:normal;font-variant:normal;font-weight:normal;font-stretch:normal;font-size:medium;line-height:normal;font-family:sans-serif;text-indent:0;text-align:start;text-decoration:none;text-decoration-line:none;text-decoration-style:solid;text-decoration-color:#000000;letter-spacing:normal;word-spacing:normal;text-transform:none;direction:ltr;block-progression:tb;writing-mode:lr-tb;baseline-shift:baseline;text-anchor:start;white-space:normal;clip-rule:nonzero;display:inline;overflow:visible;visibility:visible;opacity:0.54500002;isolation:auto;mix-blend-mode:normal;color-interpolation:sRGB;color-interpolation-filters:linearRGB;solid-color:#000000;solid-opacity:1;fill:#555555;fill-opacity:1;fill-rule:nonzero;stroke:none;stroke-width:2.12598419;stroke-linecap:butt;stroke-linejoin:round;stroke-miterlimit:4;stroke-dasharray:none;stroke-dashoffset:0;stroke-opacity:1;color-rendering:auto;image-rendering:auto;shape-rendering:auto;text-rendering:auto;enable-background:accumulate"
       d="m 363.62769,848.375 20.6145,0 c 1.15367,0 2.05078,0.89598 2.05078,2.04883 l 0,4.71875 c 0,1.15287 -0.89711,2.04883 -2.05078,2.04883 l -2.02539,0 c -0.58667,3.3e-4 -1.06217,0.47583 -1.0625,1.0625 l 0,25.94726 c -7.5e-4,0.58743 0.47507,1.06412 1.0625,1.06445 l 2.02539,0 c 1.15287,0 2.05078,0.89598 2.05078,2.04883 l 0,4.72071 c 0,1.15287 -0.89711,2.04687 -2.05078,2.04687 l -20.6145,0 c 0,0 -3.28598,-7.41207 -3.04513,-11.42676 0.24085,-4.01469 4.56769,-7.32479 4.56769,-11.42675 0,-4.10196 -5.8494,-7.41207 -6.09025,-11.42676 -0.24085,-4.01469 4.56769,-11.42676 4.56769,-11.42676 z m -125.20958,45.70703 -19.09194,0 c -1.15366,0 -2.04883,-0.894 -2.04883,-2.04687 l 0,-4.72071 c 0,-1.15285 0.89597,-2.04883 2.04883,-2.04883 l 2.02539,0 c 0.58819,7.5e-4 1.06521,-0.47626 1.06446,-1.06445 l 0,-25.94726 c -3.3e-4,-0.58743 -0.47703,-1.06325 -1.06446,-1.0625 l -2.02539,0 c -1.23906,0 -2.04883,-0.86934 -2.04883,-2.04883 l 0,-4.71875 c 0,-1.15285 0.89517,-2.04883 2.04883,-2.04883 l 20.6145,0 c 0,0 3.28598,7.41207 3.04513,11.42676 -0.24085,4.01469 -4.56769,7.3248 -4.56769,11.42676 0,4.10196 5.8494,7.41206 6.09025,11.42675 0.24085,4.01469 -6.09025,11.42676 -6.09025,11.42676 z"
       id="path4516"
       inkscape:connector-curvature="0"
       sodipodi:nodetypes="cssssccccssssczzzccssssccccssssczzzc" />
    <path
       sodipodi:nodetypes="cssssccccssssczzzccssssccccssssczzzc"
       inkscape:connector-curvature="0"
       id="path4531"
       d="m 365.15026,848.375 19.09193,0 c 1.15367,0 2.05078,0.89598 2.05078,2.04883 l 0,4.71875 c 0,1.15287 -0.89711,2.04883 -2.05078,2.04883 l -2.02539,0 c -0.58667,3.3e-4 -1.06217,0.47583 -1.0625,1.0625 l 0,25.94726 c -7.5e-4,0.58743 0.47507,1.06412 1.0625,1.06445 l 2.02539,0 c 1.15287,0 2.05078,0.89598 2.05078,2.04883 l 0,4.72071 c 0,1.15287 -0.89711,2.04687 -2.05078,2.04687 l -19.09193,0 c 0,0 -1.76342,-7.41207 -1.52257,-11.42676 0.24085,-4.01469 3.04513,-7.32479 3.04513,-11.42675 0,-4.10196 -2.80428,-7.41207 -3.04513,-11.42676 -0.24085,-4.01469 1.52257,-11.42676 1.52257,-11.42676 z m -128.25472,45.70703 -17.56937,0 c -1.15366,0 -2.04883,-0.894 -2.04883,-2.04687 l 0,-4.72071 c 0,-1.15285 0.89597,-2.04883 2.04883,-2.04883 l 2.02539,0 c 0.58819,7.5e-4 1.06521,-0.47626 1.06446,-1.06445 l 0,-25.94726 c -3.3e-4,-0.58743 -0.47703,-1.06325 -1.06446,-1.0625 l -2.02539,0 c -1.23906,0 -2.04883,-0.86934 -2.04883,-2.04883 l 0,-4.71875 c 0,-1.15285 0.89517,-2.04883 2.04883,-2.04883 l 19.09193,0 c 0,0 1.76342,7.41207 1.52257,11.42676 -0.24085,4.01469 -3.04513,7.3248 -3.04513,11.42676 0,4.10196 2.80428,7.41206 3.04513,11.42675 0.24085,4.01469 -3.04513,11.42676 -3.04513,11.42676 z"
       style="color:#000000;font-style:normal;font-variant:normal;font-weight:normal;font-stretch:normal;font-size:medium;line-height:normal;font-family:sans-serif;text-indent:0;text-align:start;text-decoration:none;text-decoration-line:none;text-decoration-style:solid;text-decoration-color:#000000;letter-spacing:normal;word-spacing:normal;text-transform:none;direction:ltr;block-progression:tb;writing-mode:lr-tb;baseline-shift:baseline;text-anchor:start;white-space:normal;clip-rule:nonzero;display:inline;overflow:visible;visibility:visible;opacity:0.54500002;isolation:auto;mix-blend-mode:normal;color-interpolation:sRGB;color-interpolation-filters:linearRGB;solid-color:#000000;solid-opacity:1;fill:#555555;fill-opacity:1;fill-rule:nonzero;stroke:none;stroke-width:2.12598419;stroke-linecap:butt;stroke-linejoin:round;stroke-miterlimit:4;stroke-dasharray:none;stroke-dashoffset:0;stroke-opacity:1;color-rendering:auto;image-rendering:auto;shape-rendering:auto;text-rendering:auto;enable-background:accumulate" />
    <path
       sodipodi:nodetypes="ccc"
       inkscape:connector-curvature="0"
       id="path62842"
       d="m 618.93881,750.1761 88.48891,0 0,8.3312"
       style="fill:none;fill-opacity:0.6;stroke:#269926;stroke-width:1.77165353;stroke-opacity:0.6" />
    <path
       sodipodi:nodetypes="cc"
       inkscape:connector-curvature="0"
       id="path62844"
       d="m 637.16752,758.5073 0,-7.95836"
       style="fill:none;fill-opacity:0.6;stroke:#269926;stroke-width:1.77165353;stroke-opacity:0.6" />
    <path
       sodipodi:nodetypes="cc"
       inkscape:connector-curvature="0"
       id="path62846"
       d="m 655.17025,758.5073 0,-7.95836"
       style="fill:none;fill-opacity:0.6;stroke:#269926;stroke-width:1.77165353;stroke-opacity:0.6" />
    <path
       sodipodi:nodetypes="cc"
       inkscape:connector-curvature="0"
       id="path62848"
       d="m 689.42575,758.5073 0,-7.95836"
       style="fill:none;fill-opacity:0.6;stroke:#269926;stroke-width:1.77165353;stroke-opacity:0.6" />
    <path
       sodipodi:nodetypes="cccc"
       inkscape:connector-curvature="0"
       id="path62850"
       d="m 610.5459,743.47091 7.92965,0 0,13.42229 -10.85183,0"
       style="fill:none;fill-opacity:0.6;stroke:#269926;stroke-width:1.77165353;stroke-opacity:0.6" />
    <path
       style="fill:none;fill-opacity:0.6;stroke:#269926;stroke-width:1.77165353;stroke-opacity:0.6"
       d="m 726.19053,769.1204 -27.73567,0 0,-10.3312"
       id="path62852"
       inkscape:connector-curvature="0"
       sodipodi:nodetypes="ccc" />
    <path
       style="fill:none;fill-opacity:0.6;stroke:#269926;stroke-width:1.77165353;stroke-opacity:0.6"
       d="m 734.79254,775.68799 -7.92965,0 0,-13.42228 10.85183,0"
       id="path62854"
       inkscape:connector-curvature="0"
       sodipodi:nodetypes="cccc" />
    <path
       style="fill:none;fill-opacity:0.6;stroke:#269926;stroke-width:1.77165353;stroke-opacity:0.6"
       d="m 646.13123,771.04507 0,-12.33119"
       id="path62856"
       inkscape:connector-curvature="0"
       sodipodi:nodetypes="cc" />
    <path
       sodipodi:nodetypes="cc"
       inkscape:connector-curvature="0"
       id="path62858"
       d="m 643.92432,773.54667 4.41381,-4.22115"
       style="fill:none;fill-opacity:0.6;stroke:#269926;stroke-width:1.77165353;stroke-opacity:0.6" />
    <path
       style="fill:none;fill-opacity:0.6;stroke:#269926;stroke-width:1.77165353;stroke-opacity:0.6"
       d="m 648.33813,773.54667 -4.41381,-4.22115"
       id="path62860"
       inkscape:connector-curvature="0"
       sodipodi:nodetypes="cc" />
    <path
       id="path62937"
       style="opacity:1;fill:none;fill-opacity:1;stroke:#000000;stroke-width:2.12598419;stroke-linecap:round;stroke-linejoin:round;stroke-miterlimit:4;stroke-dasharray:none;stroke-dashoffset:0;stroke-opacity:1"
       d="m 619.43844,810.08521 c 0,0.58119 -0.47114,1.05234 -1.05233,1.05234 -0.58119,0 -1.05234,-0.47115 -1.05234,-1.05234 0,-0.58119 0.47115,-1.05234 1.05234,-1.05234 0.58119,0 1.05233,0.47115 1.05233,1.05234 z m 108.44347,18.96163 c 0,0.58119 -0.47114,1.05234 -1.05233,1.05234 -0.58119,0 -1.05234,-0.47115 -1.05234,-1.05234 0,-0.58119 0.47115,-1.05234 1.05234,-1.05234 0.58119,0 1.05233,0.47115 1.05233,1.05234 z m -37.49715,-18.64205 c 0,0.58119 -0.47115,1.05233 -1.05234,1.05233 -0.58119,0 -1.05233,-0.47114 -1.05233,-1.05233 0,-0.58119 0.47114,-1.05234 1.05233,-1.05234 0.58119,0 1.05234,0.47115 1.05234,1.05234 z m -34.19485,-0.21306 c 0,0.58119 -0.47114,1.05234 -1.05233,1.05234 -0.58119,0 -1.05234,-0.47115 -1.05234,-1.05234 0,-0.58119 0.47115,-1.05234 1.05234,-1.05234 0.58119,0 1.05233,0.47115 1.05233,1.05234 z m -18.07806,0.26362 c 0,0.58119 -0.47114,1.05234 -1.05233,1.05234 -0.5812,0 -1.05234,-0.47115 -1.05234,-1.05234 0,-0.58119 0.47114,-1.05234 1.05234,-1.05234 0.58119,0 1.05233,0.47115 1.05233,1.05234 z m 10.22628,23.09131 -4.41381,-4.22116 m 0,4.22116 4.41381,-4.22116 m -2.2069,1.71956 0,-6.3312 m 83.72657,10.97411 -2.99491,0 0,-13.42228 5.91709,0 m -6.58945,6.85469 -27.73567,0 0,-4.33119 m -82.97422,-21.3183 2.99491,0 0,13.42228 -5.91709,0 m 76.86729,-2.38588 0,-3.95836 m -34.2555,3.95836 0,-3.95836 m -18.00273,3.95836 0,-3.95836 m -18.22871,-0.37285 88.48891,0 0,4.33121"
       inkscape:connector-curvature="0" />
    <g
       style="fill:none;stroke:#444444;stroke-width:0.03;stroke-linecap:round;stroke-linejoin:round;stroke-opacity:0.5"
       transform="matrix(3.5433071,0,0,3.5433071,646.14548,759.76655)"
       pcbmode:type="component"
       pcbmode:footprint="header-3pin-sneaky"
       pcbmode:refdef="J60"
       id="g60447">
      <path
         inkscape:connector-curvature="0"
         d="M 0,0.1 C 0.05522847,0.1 0.1,0.05522847 0.1,0 0.1,-0.05522847 0.05522847,-0.1 0,-0.1 c -0.05522847,0 -0.1,0.04477153 -0.1,0.1 0,0.05522847 0.04477153,0.1 0.1,0.1 M -0.18,0 0.18,0 Z"
         id="path60449" />
      <text
         sodipodi:linespacing="100%"
         style="font-style:normal;font-variant:normal;font-weight:bold;font-stretch:normal;font-size:0.1px;line-height:100%;font-family:'Sans serif';text-align:center;letter-spacing:0;word-spacing:0;writing-mode:lr-tb;text-anchor:middle;fill:#222222;fill-opacity:0.8;stroke:none"
         x="0"
         y="-0.17"
         id="text60451">
        <tspan
           dy="0.1"
           x="0"
           id="tspan60453">J60</tspan>
        <tspan
           dy="0.1"
           x="0"
           id="tspan60455">0</tspan>
        <tspan
           dy="0.1"
           x="0"
           id="tspan60457">[-33.99,-33.39]</tspan>
      </text>
    </g>
  </g>
</svg>
