<?xml version="1.0" encoding="UTF-8" standalone="no"?>
<!-- Created with Inkscape (http://www.inkscape.org/) -->

<svg
   xmlns:dc="http://purl.org/dc/elements/1.1/"
   xmlns:cc="http://creativecommons.org/ns#"
   xmlns:rdf="http://www.w3.org/1999/02/22-rdf-syntax-ns#"
   xmlns:svg="http://www.w3.org/2000/svg"
   xmlns="http://www.w3.org/2000/svg"
   xmlns:sodipodi="http://sodipodi.sourceforge.net/DTD/sodipodi-0.dtd"
   xmlns:inkscape="http://www.inkscape.org/namespaces/inkscape"
   width="210mm"
   height="297mm"
   viewBox="0 0 744.09448819 1052.3622047"
   id="svg8450"
   version="1.1"
   inkscape:version="0.91 r13725"
   sodipodi:docname="shapes.svg">
  <defs
     id="defs8452" />
  <sodipodi:namedview
     id="base"
     pagecolor="#ffffff"
     bordercolor="#666666"
     borderopacity="1.0"
     inkscape:pageopacity="0.0"
     inkscape:pageshadow="2"
     inkscape:zoom="1.6419672"
     inkscape:cx="461.96979"
     inkscape:cy="326.70193"
     inkscape:document-units="mm"
     inkscape:current-layer="layer1"
     showgrid="false"
     inkscape:window-width="1881"
     inkscape:window-height="1056"
     inkscape:window-x="39"
     inkscape:window-y="24"
     inkscape:window-maximized="1"
     showguides="true"
     inkscape:snap-global="false" />
  <metadata
     id="metadata8455">
    <rdf:RDF>
      <cc:Work
         rdf:about="">
        <dc:format>image/svg+xml</dc:format>
        <dc:type
           rdf:resource="http://purl.org/dc/dcmitype/StillImage" />
        <dc:title />
      </cc:Work>
    </rdf:RDF>
  </metadata>
  <g
     inkscape:label="Layer 1"
     inkscape:groupmode="layer"
     id="layer1">
    <path
       style="fill:none;stroke:#555555;stroke-width:0.17716536;stroke-opacity:1"
       d="m -54.29307,584.08583 c -3.1832,0 -5.74504,2.56287 -5.75,5.83008 0,0 0.64521,35.63166 -17.62692,76.21093 -11.61949,25.8049 -36.33969,48.05274 -36.33969,48.05274 l 32.13853,54.43359 50.164014,0.0234 50.16601,-0.0234 32.1367,-54.43359 c 0,0 -24.72032,-22.24782 -36.33982,-48.05274 -18.2721605,-40.57927 -17.6250005,-76.21093 -17.6250005,-76.21093 -0.007,-3.26721 -2.56875,-5.83008 -5.75195,-5.83008 z"
       id="path3238"
       inkscape:connector-curvature="0" />
    <path
       style="fill:none;stroke:#555555;stroke-width:0.17716536;stroke-opacity:1"
       d="m 318.36909,576.92646 c -1.5e-4,1.43581 1.08687,2.5918 2.10118,2.5918 l 2.63515,0 c 29.08724,0 58.17447,0 87.26171,0 l 2.52367,0 c 1.01432,0 2.21281,-1.15599 2.21266,-2.5918 l -0.002,-3.4375 c -1.4e-4,-1.43582 -1.19639,-2.58984 -2.21071,-2.58984 l -2.926,0 0,-19.25391 2.926,0 c 1.03468,0.0578 2.21267,-1.15598 2.21267,-2.5918 l 0,-3.43945 c 0,-1.43582 -1.19835,-2.5918 -2.21267,-2.5918 l -2.52367,0 c -29.08724,0 -58.17447,0 -87.26171,0 l -2.63515,0 c -1.01432,0 -2.09922,1.15598 -2.09922,2.5918 l 0,3.43945 c 0,1.43582 1.0849,2.5918 2.09922,2.5918 l 3.03749,0 0,19.25391 -3.03749,0 c -1.14941,0.0689 -2.126,1.26168 -2.09922,2.58984 z"
       id="path9042"
       inkscape:connector-curvature="0"
       sodipodi:nodetypes="csccsccscccsssccssssccccc" />
    <path
       style="fill:none;stroke:#555555;stroke-width:0.17716536;stroke-opacity:1"
       d="m 257.97348,557.41341 -3.57227,0.002 c -1.46371,5.5e-4 -2.64258,1.29355 -2.64258,2.90234 l 0,4.60742 c 0,46.13412 0,92.26824 0,138.40236 l 0,4.60547 c 0,1.60877 1.17887,2.9068 2.64258,2.90625 l 3.57227,0 c 1.46371,-5.6e-4 2.64062,-1.29748 2.64062,-2.90625 l 0,-2.23047 19.49021,0 0,2.23047 c 0,1.60877 1.17887,2.90625 2.64258,2.90625 l 3.57422,0 c 1.4637,0 2.64257,-1.29748 2.64257,-2.90625 l 0,-4.60547 c 0,-46.13412 0,-92.26824 0,-138.40236 l 0,-4.60742 c 0,-1.60879 -1.17887,-2.9043 -2.64257,-2.9043 l -3.57422,0 c -1.46371,0 -2.64258,1.29551 -2.64258,2.9043 l 0,2.23437 -19.49021,0 0,-2.23437 c 0,-1.60879 -1.17691,-2.90485 -2.64062,-2.90429 z"
       id="path9040"
       inkscape:connector-curvature="0"
       sodipodi:nodetypes="ccsccsccsccssssccssssccscc" />
    <path
       style="fill:none;stroke:#555555;stroke-width:0.17716536;stroke-opacity:1"
       d="m 376.74318,721.22917 c 0,-1.72395 -1.38932,-3.11132 -3.11329,-3.11132 -54.97201,0 -109.94401,0 -164.91602,0 -1.72396,0 -3.11328,1.38737 -3.11328,3.11132 l 0,7.94922 c 0,1.72397 1.38932,3.11133 3.11328,3.11133 l 2.02539,0 0,19.48826 -2.02539,0 c -1.72396,0 -3.11328,1.38932 -3.11328,3.11328 l 0,7.94921 c 0,1.72397 1.38932,3.11133 3.11328,3.11133 54.97201,0 109.94401,0 164.91602,0 1.72397,0 3.11329,-1.38736 3.11329,-3.11133 l 0,-7.94921 c 0,-1.72396 -1.38932,-3.11328 -3.11329,-3.11328 l -2.02539,0 0,-19.48826 2.02539,0 c 1.72397,0 3.11329,-1.38736 3.11329,-3.11133 z"
       id="path9038"
       inkscape:connector-curvature="0"
       sodipodi:nodetypes="sccsssccsssccsssccsss" />
    <path
       style="fill:none;stroke:#555555;stroke-width:0.17716534;stroke-miterlimit:4;stroke-dasharray:none;stroke-opacity:1"
       d="m 304.23302,617.59244 c -0.10766,1.19193 1.12981,2.19364 2.25094,2.25094 l 2.82761,0 c 1.12492,0.005 1.73077,0.99975 1.67694,2.1957 l 0,2.64778 c 0,2.49559 2.00891,4.50189 4.50452,4.50189 l 65.64006,0 c 2.49558,0 4.50453,-2.0063 4.50453,-4.50189 l 0,-29.59057 c 0,-2.49558 -2.00895,-4.50187 -4.50453,-4.50187 l -65.64006,0 c -2.4956,0 -4.50452,2.00629 -4.50452,4.50187 l 0,2.93427 c 0.13185,1.15953 -0.95401,1.99382 -1.67694,1.90922 l -2.8276,0 c -1.17496,-0.0504 -2.25094,1.00517 -2.25094,2.25093 z"
       id="path9030"
       inkscape:connector-curvature="0"
       sodipodi:nodetypes="ccccsssssssscccsc" />
    <path
       style="fill:none;stroke:#555555;stroke-width:0.17716536;stroke-opacity:1"
       d="m 298.19161,675.43888 c 0,19.55098 15.84743,35.40036 35.39844,35.40036 6.55793,-0.0765 16.92003,-5.9062 24.08184,-8.52432 7.16183,-2.61812 21.71816,0.037 28.10762,2.12773 6.38946,2.09075 7.0743,-1.36951 7.0742,-3.07227 l 0,-51.8613 c 0,-1.70276 -0.68472,-5.16301 -7.0742,-3.07226 -6.38948,2.09075 -20.94579,4.74435 -28.10762,2.12593 -7.16183,-2.6186 -17.52391,-8.4478 -24.08185,-8.52432 -19.551,0 -35.39845,15.84942 -35.39843,35.40039 z"
       id="path9028"
       inkscape:connector-curvature="0"
       sodipodi:nodetypes="scszcszccss" />
    <path
       inkscape:connector-curvature="0"
       id="path9050"
       d="m 565.26874,721.22917 c 0,-1.72395 -1.3893,-3.11132 -3.11329,-3.11132 -54.972,0 -109.94399,0 -164.91599,0 -1.72396,0 -3.11328,1.38737 -3.11328,3.11132 l 0,7.94921 c 0,1.72397 1.38932,3.11133 3.11328,3.11133 l 2.02539,0 0,19.48826 -2.02539,0 c -1.72396,0 -3.11328,1.38932 -3.11328,3.11328 l 0,7.94922 c 0,1.72397 1.38932,3.11133 3.11328,3.11133 54.972,0 109.94399,0 164.91599,0 1.724,0 3.11329,-1.38736 3.11329,-3.11133 l 0,-7.94922 c 0,-1.72396 -1.3893,-3.11328 -3.11329,-3.11328 l -2.0254,0 0,-19.48826 2.0254,0 c 1.724,0 3.11329,-1.38736 3.11329,-3.11133 z"
       style="fill:none;stroke:#555555;stroke-width:0.17716536;stroke-opacity:1"
       sodipodi:nodetypes="sccsssccsssccsssccsss" />
    <path
       inkscape:connector-curvature="0"
       id="path9052"
       d="m 211.81544,557.41341 -3.57227,0.002 c -1.46371,5.5e-4 -2.64258,1.29355 -2.64258,2.90234 l 0,4.60742 c 0,46.13412 0,92.26823 0,138.40235 l 0,4.60547 c 0,1.60877 1.17887,2.9068 2.64258,2.90625 l 3.57227,0 c 1.46371,-5.6e-4 2.64062,-1.29748 2.64062,-2.90625 l 0,-2.23047 19.49023,0 0,2.23047 c 0,1.60877 1.17887,2.90625 2.64258,2.90625 l 3.57422,0 c 1.4637,0 2.64257,-1.29748 2.64257,-2.90625 l 0,-4.60547 c 0,-46.13412 0,-92.26823 0,-138.40235 l 0,-4.60742 c 0,-1.60879 -1.17887,-2.9043 -2.64257,-2.9043 l -3.57422,0 c -1.46371,0 -2.64258,1.29551 -2.64258,2.9043 l 0,2.23437 -19.49023,0 0,-2.23437 c 0,-1.60879 -1.17691,-2.90485 -2.64062,-2.90429 z"
       style="fill:none;stroke:#555555;stroke-width:0.17716536;stroke-opacity:1"
       sodipodi:nodetypes="ccsccsccsccssssccssssccscc" />
    <path
       inkscape:connector-curvature="0"
       id="path9058"
       d="m 212.46115,486.73268 c -6.80165,5.8562 -8.51038,15.58474 -3.79115,23.2193 l 6.7722,-5.81601 c 0.71703,-0.61579 1.96398,-0.33022 2.57978,0.38682 l 1.471,1.71285 c 0.61579,0.71703 0.71102,1.9943 -0.006,2.61009 l -6.78109,5.82364 c 6.83767,5.81999 16.71783,5.59655 23.53316,-0.24957 6.80865,-5.85391 8.52172,-15.58716 3.80132,-23.22547 l -6.7811,5.82366 c -0.71704,0.61579 -1.96674,0.32999 -2.58253,-0.38703 l -1.471,-1.71285 c -0.6158,-0.71704 -0.70828,-1.99408 0.009,-2.60988 l 6.7722,-5.81602 c -6.83413,-5.81826 -16.70925,-5.59869 -23.52554,0.24047 z"
       style="fill:none;stroke:#555555;stroke-width:0.17716536;stroke-opacity:1"
       sodipodi:nodetypes="ccsssscccsssscc" />
    <path
       sodipodi:nodetypes="csscccazcszaccc"
       style="fill:none;stroke:#555555;stroke-width:0.17716536;stroke-opacity:1"
       d="m 402.21081,701.87166 c 0,19.551 39.84943,-0.60157 59.4004,-0.60157 l 6e-5,0 c 19.55098,0 59.40036,20.15257 59.40036,0.60157 l 0,-43.99999 0,-40 c -0.0765,-6.55793 -21.18865,-20.46502 -26.37109,-33.77539 -6.11652,-15.70943 -6.11625,-44.02462 -4.0255,-50.41407 2.09075,-6.38945 -1.36951,-7.07431 -3.07227,-7.07421 l -51.8613,0 c -1.70276,0 -5.16301,0.68474 -3.07226,7.07421 2.09075,6.38947 2.08952,34.7047 -4.0273,50.41407 -5.18268,13.31027 -26.29458,27.21746 -26.3711,33.77539 l 0,40 z"
       id="path4166"
       inkscape:connector-curvature="0" />
    <path
       style="fill:none;stroke:#555555;stroke-width:0.16680637;stroke-opacity:1"
       d="m 516.89918,573.59491 c 0.006,12.32043 8.89144,22.66747 21.13661,24.02736 l 0,-15.19378 c 0,-1.00276 1.18922,-1.80951 2.19198,-1.80951 l 1.71756,0 c 1.00276,0 2.19014,0.80675 2.19014,1.80951 l 0,15.17724 c 12.23962,-1.35831 21.12393,-11.69607 21.13845,-24.01082 -0.0143,-12.31474 -8.89883,-22.6525 -21.13845,-24.01081 l 0,15.17724 c 0,1.00275 -1.18738,1.8095 -2.19014,1.8095 l -1.71756,0 c -1.00276,0 -2.19198,-0.80675 -2.19198,-1.8095 l 0,-15.19379 c -12.24517,1.35988 -21.13062,11.70692 -21.13661,24.02736 z"
       id="path4155"
       inkscape:connector-curvature="0"
       sodipodi:nodetypes="ccsssscccsssscc" />
    <path
       sodipodi:nodetypes="ccsssscccsssscc"
       style="fill:none;stroke:#555555;stroke-width:0.17716536;stroke-opacity:1"
       d="m 272.11338,482.32819 c -8.97538,0.0113 -16.61,6.27842 -18.0039,15.14491 l 8.92685,0 c 0.94516,0 1.70508,1.02906 1.70508,1.97423 l 0,2.25781 c 0,0.94516 -0.75992,1.97618 -1.70508,1.97618 l -8.93857,0 c 1.39545,8.8701 9.03643,15.1377 18.01562,15.14296 8.97919,-0.005 16.62018,-6.27286 18.01563,-15.14296 l -8.93858,0 c -0.94517,0 -1.70703,-1.03102 -1.70703,-1.97618 l 0,-2.25781 c 0,-0.94517 0.76186,-1.97423 1.70703,-1.97423 l 8.92686,0 c -1.39389,-8.86649 -9.02853,-15.13374 -18.00391,-15.14491 z"
       id="path4163"
       inkscape:connector-curvature="0" />
    <path
       inkscape:connector-curvature="0"
       id="path4165"
       d="m 439.40847,482.32819 c -8.97538,0.0113 -16.61,6.27842 -18.0039,15.14491 l 8.92685,0 c 0.94516,0 1.70508,1.02906 1.70508,1.97423 l 0,2.25781 c 0,0.94516 -0.75992,1.97618 -1.70508,1.97618 l -8.93857,0 c 1.39545,8.8701 9.03643,15.1377 18.01562,15.14296 8.97919,-0.005 16.62018,-6.27286 18.01563,-15.14296 l -8.93858,0 c -0.94517,0 -1.70703,-1.03102 -1.70703,-1.97618 l 0,-2.25781 c 0,-0.94517 0.76186,-1.97423 1.70703,-1.97423 l 8.92686,0 c -1.39389,-8.86649 -9.02853,-15.13374 -18.00391,-15.14491 z"
       style="fill:none;stroke:#555555;stroke-width:0.17716536;stroke-opacity:1"
       sodipodi:nodetypes="ccsssscccsssscc" />
    <path
       sodipodi:nodetypes="ccsssscccsssscc"
       style="fill:none;stroke:#555555;stroke-width:0.17716536;stroke-opacity:1"
       d="m 487.17175,482.32819 c -8.97538,0.0113 -16.61,6.27842 -18.0039,15.14491 l 8.92685,0 c 0.94516,0 1.70508,1.02906 1.70508,1.97423 l 0,2.25781 c 0,0.94516 -0.75992,1.97618 -1.70508,1.97618 l -8.93857,0 c 1.39545,8.8701 9.03643,15.1377 18.01562,15.14296 8.97919,-0.005 16.62018,-6.27286 18.01563,-15.14296 l -8.93858,0 c -0.94517,0 -1.70703,-1.03102 -1.70703,-1.97618 l 0,-2.25781 c 0,-0.94517 0.76186,-1.97423 1.70703,-1.97423 l 8.92686,0 c -1.39389,-8.86649 -9.02853,-15.13374 -18.00391,-15.14491 z"
       id="path4167"
       inkscape:connector-curvature="0" />
    <path
       inkscape:connector-curvature="0"
       id="path4169"
       d="m 565.48613,634.82835 c -0.0113,-8.97538 -6.27842,-16.61 -15.14491,-18.0039 l 0,8.92685 c 0,0.94516 -1.02906,1.70508 -1.97423,1.70508 l -2.25781,0 c -0.94516,0 -1.97618,-0.75992 -1.97618,-1.70508 l 0,-8.93857 c -8.8701,1.39545 -15.1377,9.03643 -15.14296,18.01562 0.005,8.97919 6.27286,16.62018 15.14296,18.01563 l 0,-8.93858 c 0,-0.94517 1.03102,-1.70703 1.97618,-1.70703 l 2.25781,0 c 0.94517,0 1.97423,0.76186 1.97423,1.70703 l 0,8.92686 c 8.86649,-1.39389 15.13374,-9.02853 15.14491,-18.00391 z"
       style="fill:none;stroke:#555555;stroke-width:0.17716536;stroke-opacity:1"
       sodipodi:nodetypes="ccsssscccsssscc" />
    <path
       sodipodi:nodetypes="ccsssscccsssscc"
       style="fill:none;stroke:#555555;stroke-width:0.17716536;stroke-opacity:1"
       d="m 565.48613,690.0605 c -0.0113,-8.97538 -6.27842,-16.61 -15.14491,-18.0039 l 0,8.92685 c 0,0.94516 -1.02906,1.70508 -1.97423,1.70508 l -2.25781,0 c -0.94516,0 -1.97618,-0.75992 -1.97618,-1.70508 l 0,-8.93857 c -8.8701,1.39545 -15.1377,9.03643 -15.14296,18.01562 0.005,8.97919 6.27286,16.62018 15.14296,18.01563 l 0,-8.93858 c 0,-0.94517 1.03102,-1.70703 1.97618,-1.70703 l 2.25781,0 c 0.94517,0 1.97423,0.76186 1.97423,1.70703 l 0,8.92686 c 8.86649,-1.39389 15.13374,-9.02853 15.14491,-18.00391 z"
       id="path4171"
       inkscape:connector-curvature="0" />
    <path
       sodipodi:nodetypes="ccsssscccsssscc"
       inkscape:connector-curvature="0"
       id="path4173"
       d="m 524.13174,523.61014 c 8.79091,8.63208 22.39874,9.5482 31.95219,1.76842 L 545.248,514.72804 c -0.71515,-0.70291 -0.45689,-2.11656 0.24602,-2.83171 l 1.20398,-1.22493 c 0.70291,-0.71515 2.1106,-0.99646 2.82575,-0.29354 l 10.82413,10.63892 c 7.611,-9.68122 6.46601,-23.2639 -2.30648,-31.90664 -8.79267,-8.62217 -22.39324,-9.53244 -31.94168,-1.75551 l 10.82413,10.63893 c 0.71515,0.70291 0.45818,2.11524 -0.24473,2.83039 l -1.20398,1.22493 c -0.70291,0.71515 -2.11189,0.99777 -2.82703,0.29486 l -10.83594,-10.65052 c -7.61376,9.68628 -6.46295,23.27628 2.31957,31.91692 z"
       style="fill:none;stroke:#555555;stroke-width:0.16680637;stroke-opacity:1" />
    <path
       style="fill:none;stroke:#555555;stroke-width:0.16680637;stroke-opacity:1"
       d="m 385.64388,482.32301 c -12.32043,0.006 -22.66747,8.89144 -24.02736,21.13661 l 15.19378,0 c 1.00276,0 1.80951,1.18922 1.80951,2.19198 l 0,1.71756 c 0,1.00276 -0.80675,2.19014 -1.80951,2.19014 l -15.17724,0 c 1.35831,12.23962 11.69607,21.12393 24.01082,21.13845 12.31474,-0.0143 22.6525,-8.89883 24.01081,-21.13845 l -15.17724,0 c -1.00275,0 -1.8095,-1.18738 -1.8095,-2.19014 l 0,-1.71756 c 0,-1.00276 0.80675,-2.19198 1.8095,-2.19198 l 15.19379,0 C 408.31136,491.21445 397.96432,482.329 385.64388,482.32301 Z"
       id="path4175"
       inkscape:connector-curvature="0"
       sodipodi:nodetypes="ccsssscccsssscc" />
    <path
       sodipodi:nodetypes="ccsssscccsssscc"
       inkscape:connector-curvature="0"
       id="path4177"
       d="m 325.87798,482.32301 c -12.32043,0.006 -22.66747,8.89144 -24.02736,21.13661 l 15.19378,0 c 1.00276,0 1.80951,1.18922 1.80951,2.19198 l 0,1.71756 c 0,1.00276 -0.80675,2.19014 -1.80951,2.19014 l -15.17724,0 c 1.35831,12.23962 11.69607,21.12393 24.01082,21.13845 12.31474,-0.0143 22.6525,-8.89883 24.01081,-21.13845 l -15.17724,0 c -1.00275,0 -1.8095,-1.18738 -1.8095,-2.19014 l 0,-1.71756 c 0,-1.00276 0.80675,-2.19198 1.8095,-2.19198 l 15.19379,0 C 348.54546,491.21445 338.19842,482.329 325.87798,482.32301 Z"
       style="fill:none;stroke:#555555;stroke-width:0.16680637;stroke-opacity:1" />
    <path
       sodipodi:nodetypes="ccccsssssssscccsc"
       inkscape:connector-curvature="0"
       id="path4206"
       d="m 205.60715,541.08145 c -0.10766,1.19193 1.12981,2.19364 2.25094,2.25094 l 1.75099,0 c 1.12492,0.005 1.73077,0.59602 1.67694,1.79197 l 0,3.52895 c 0,1.87654 1.42197,2.50189 2.50452,2.50189 l 82.56345,0 c 2.49558,0 4.50453,-2.0063 4.50453,-4.50189 l 0,-17.94627 c 0,-2.49558 -2.00895,-4.50187 -4.50453,-4.50187 l -82.56345,0 c -1.67468,0 -2.50452,0.94833 -2.50452,2.50187 l 0,3.81544 c 0.0242,1.06533 -0.84635,1.48243 -1.67694,1.50549 l -1.75098,0 c -1.17496,-0.0504 -2.25094,1.00517 -2.25094,2.25093 z"
       style="fill:none;stroke:#555555;stroke-width:0.17716534;stroke-miterlimit:4;stroke-dasharray:none;stroke-opacity:1" />
  </g>
</svg>
